<?xml version="1.0" encoding="utf-8"?>
<!-- Generator: Adobe Illustrator 16.2.1, SVG Export Plug-In . SVG Version: 6.00 Build 0)  -->
<!DOCTYPE svg PUBLIC "-//W3C//DTD SVG 1.1 Tiny//EN" "http://www.w3.org/Graphics/SVG/1.1/DTD/svg11-tiny.dtd">
<svg version="1.1" baseProfile="tiny" id="Layer_1" xmlns="http://www.w3.org/2000/svg" xmlns:xlink="http://www.w3.org/1999/xlink"
	 x="0px" y="0px" width="130px" height="130px" viewBox="0 0 130 130" xml:space="preserve">
<rect fill="#0C0506" stroke="#000000" stroke-width="0.2907" stroke-miterlimit="10" width="130" height="130"/>
<g>
	<path fill="none" stroke="#FFFFFF" stroke-width="3" stroke-miterlimit="10" d="M65.014,17.093c-0.005,0-31.998-0.228-31.998,6.864
		v8.135c0,7.092,31.993,6.864,31.998,6.864c0.006,0,31.998,0.228,31.998-6.864v-8.135C97.012,16.865,65.02,17.093,65.014,17.093z"/>
	<path fill="none" stroke="#FFFFFF" stroke-width="3" stroke-miterlimit="10" d="M33.016,24.092c0,7.092,31.993,6.864,31.998,6.864
		c0.006,0,31.998,0.228,31.998-6.864"/>
	<path fill="none" stroke="#FFFFFF" stroke-width="3" stroke-miterlimit="10" d="M97.359,32.092c0,0,5.309,2.667,5.309,9.667v58.334
		c0,8.343-27.461,9.131-37.977,9.131s-37.333-0.788-37.333-9.131V41.759c0-7,5.31-9.667,5.31-9.667"/>
	<path fill="none" stroke="#FFFFFF" stroke-width="3" stroke-miterlimit="10" d="M102.668,100.354
		c0-8.343-27.461-9.131-37.977-9.131s-37.333,0.788-37.333,9.131"/>
	
		<line fill="none" stroke="#FFFFFF" stroke-width="3" stroke-linecap="round" stroke-miterlimit="10" x1="54.847" y1="24.092" x2="75.18" y2="24.092"/>
</g>
<polygon fill="#FFFFFF" points="79.952,71.63 79.952,95.798 76.824,98.713 73.453,95.798 69.264,98.713 65.014,95.798 
	61.066,98.713 56.967,95.798 53.323,98.713 50.074,95.798 50.074,71.63 50.074,47.461 53.202,44.546 56.57,47.461 60.762,44.546 
	65.014,47.461 68.959,44.546 73.058,47.461 76.701,44.546 79.952,47.461 "/>
<line fill="none" stroke="#000000" stroke-width="3" stroke-linecap="round" stroke-miterlimit="10" x1="54.847" y1="54.092" x2="75.18" y2="54.092"/>
<line fill="none" stroke="#000000" stroke-width="3" stroke-linecap="round" stroke-miterlimit="10" x1="54.847" y1="64.092" x2="75.18" y2="64.092"/>
<line fill="none" stroke="#000000" stroke-width="3" stroke-linecap="round" stroke-miterlimit="10" x1="54.847" y1="74.092" x2="75.18" y2="74.092"/>
<line fill="none" stroke="#000000" stroke-width="3" stroke-linecap="round" stroke-miterlimit="10" x1="54.847" y1="84.092" x2="75.18" y2="84.092"/>
</svg>
