<?xml version="1.0" standalone="no"?>
<!DOCTYPE svg PUBLIC "-//W3C//DTD SVG 1.1//EN" "http://www.w3.org/Graphics/SVG/1.1/DTD/svg11.dtd" >
<svg xmlns="http://www.w3.org/2000/svg">
<metadata></metadata>
<defs>
<font id="steelfishextrabold_italic" horiz-adv-x="370" >
<font-face units-per-em="2048" ascent="1743" descent="-305" />
<missing-glyph horiz-adv-x="278" />
<glyph unicode="&#x28;C&#x29;" horiz-adv-x="1077" d="M111 326q0 52 10 127l108 780q35 252 165 361.5t382 109.5q220 0 323 -81.5t103 -266.5q0 -48 -10 -123l-109 -780q-36 -252 -166 -361.5t-382 -109.5q-218 0 -321 81t-103 263zM260 346q0 -119 68 -170t227 -51q187 0 269 69.5t106 239.5l114 817q9 56 9 101 q0 117 -67 164t-228 47q-190 0 -270.5 -66.5t-106.5 -245.5l-115 -817q-6 -49 -6 -88zM434 489l103 721q24 185 198 185q159 0 135 -183l-26 -188h-127l26 188q6 41 -26 41q-31 0 -37 -41l-102 -723q-6 -38 24 -38q33 0 39 38l31 222h127l-31 -219q-12 -92 -56 -136.5 t-128 -44.5q-174 0 -150 178z" />
<glyph unicode="&#x28;R&#x29;" horiz-adv-x="1077" d="M111 326q0 52 10 127l108 780q35 252 165 361.5t382 109.5q220 0 323 -81.5t103 -266.5q0 -48 -10 -123l-109 -780q-36 -252 -166 -361.5t-382 -109.5q-218 0 -321 81t-103 263zM260 346q0 -119 68 -170t227 -51q187 0 269 69.5t106 239.5l114 817q9 56 9 101 q0 117 -67 164t-228 47q-190 0 -270.5 -66.5t-106.5 -245.5l-115 -817q-6 -49 -6 -88zM414 322l147 1060h168q97 0 137 -44.5t25 -145.5l-31 -221q-9 -62 -27 -97t-53 -55q2 -70 2 -211q0 -190 -2 -286h-153q15 397 16 469h-22l-66 -469h-141zM639 924h27q47 0 53 49l31 219 q9 49 -39 49h-27z" />
<glyph horiz-adv-x="2048" />
<glyph horiz-adv-x="2048" />
<glyph unicode="&#xd;" horiz-adv-x="2048" />
<glyph horiz-adv-x="278" />
<glyph unicode=" "  horiz-adv-x="278" />
<glyph unicode="&#x09;" horiz-adv-x="278" />
<glyph unicode="&#xa0;" horiz-adv-x="278" />
<glyph unicode="!" horiz-adv-x="378" d="M76 0l30 223h228l-31 -223h-227zM164 326l29 518l118 842h228l-117 -838l-119 -522h-139z" />
<glyph unicode="&#x22;" horiz-adv-x="628" d="M266 1489l27 197h199l-27 -197l-82 -270h-113zM582 1489l26 197h199l-27 -197l-82 -270h-112z" />
<glyph unicode="#" horiz-adv-x="831" d="M66 0l165 580h-114l26 190h142l57 193h-133l27 190h161l152 533h145l-155 -533h166l151 533h143l-153 -533h110l-26 -190h-139l-58 -193h129l-26 -190h-158l-166 -580h-141l168 580h-168l-166 -580h-139zM426 770h166l57 193h-166z" />
<glyph unicode="$" horiz-adv-x="587" d="M94 231q0 43 4 68l45 319h168l-47 -337q-3 -23 7.5 -40t29.5 -20l70 504l-60 80q-58 73 -80 124.5t-22 114.5q0 51 8 103l35 242q17 125 80 195t162 81l16 115h63l-16 -115q170 -15 170 -201q0 -34 -6 -75l-39 -271h-164l41 289q6 49 -41 59l-69 -493l67 -78 q54 -65 76 -115.5t22 -120.5q0 -55 -12 -137l-31 -223q-17 -126 -79.5 -198.5t-165.5 -82.5l-19 -124h-63l18 126q-168 18 -168 211zM344 221q20 3 34 19.5t17 40.5l35 258q7 41 3 73t-25 68zM383 1076q5 -28 29 -62l63 452q-21 -5 -35.5 -20.5t-17.5 -38.5l-37 -266 q-7 -37 -2 -65z" />
<glyph unicode="%" horiz-adv-x="991" d="M57 0l987 1686h125l-985 -1686h-127zM201 997l82 576q19 143 161 143q138 0 119 -143l-82 -576q-19 -143 -159 -143t-121 143zM311 995q-3 -30 27 -30t33 30l82 580q3 31 -25 31q-32 0 -35 -31zM659 113l82 575q19 143 162 143q138 0 119 -143l-82 -575 q-19 -144 -160 -144q-140 0 -121 144zM770 111q-3 -31 27 -31q29 0 32 31l82 579q3 31 -24 31q-32 0 -35 -31z" />
<glyph unicode="&#x26;" horiz-adv-x="786" d="M84 211q0 46 10 121l27 186q12 94 57.5 179.5t155.5 211.5q-49 217 -49 314q0 55 8 110l14 97q20 149 86 211.5t195 62.5q194 0 194 -203q0 -44 -4 -67l-18 -129q-13 -98 -55 -177t-166 -243l96 -443q23 106 27 133l6 50h170l-9 -60q-26 -195 -133 -356q9 -6 25 -6 q41 0 67 18l-30 -207q-46 -22 -107 -22q-32 0 -60 15t-42 38q-66 -63 -213 -63q-138 0 -195 55t-57 174zM313 338q-20 -148 74 -148q68 0 102 31l-102 461q-34 -64 -47 -150zM475 1229q0 -64 17 -139q77 115 96 258l10 71q9 68 -39 68q-54 0 -63 -68l-11 -71 q-10 -68 -10 -119z" />
<glyph unicode="'" horiz-adv-x="313" d="M266 1489l27 197h199l-27 -197l-82 -270h-113z" />
<glyph unicode="(" horiz-adv-x="524" d="M164 94q0 26 8 96l182 1305q26 184 117 269t254 85h18l-22 -159h-19q-83 0 -128.5 -48t-59.5 -147l-182 -1305q-14 -99 18 -146.5t115 -47.5h18l-22 -160h-19q-140 0 -209 62.5t-69 195.5z" />
<glyph unicode=")" horiz-adv-x="524" d="M121 -164l22 160h19q83 0 129.5 48t60.5 146l183 1305q27 195 -136 195h-18l22 159h19q141 0 210.5 -63t69.5 -197q0 -24 -8 -94l-182 -1305q-26 -184 -118 -269t-255 -85h-18z" />
<glyph unicode="*" horiz-adv-x="649" d="M217 1419l41 125l207 -82l-16 224h135l-17 -224l207 86l41 -127l-217 -55l143 -170l-104 -80l-121 191l-117 -191l-106 78l141 172z" />
<glyph unicode="+" horiz-adv-x="962" d="M178 776l23 166h329l48 328h165l-47 -328h330l-22 -166h-330l-47 -332h-166l47 332h-330z" />
<glyph unicode="," horiz-adv-x="321" d="M63 45l29 211h207l-33 -231q-8 -65 -53 -108.5t-123 -43.5h-27l13 88h26q24 0 35.5 11t14.5 38l6 35h-95z" />
<glyph unicode="-" d="M127 764l25 170h333l-24 -170h-334z" />
<glyph unicode="." horiz-adv-x="321" d="M57 0l35 256h207l-35 -256h-207z" />
<glyph unicode="/" horiz-adv-x="497" d="M6 0l557 1686h162l-557 -1686h-162z" />
<glyph unicode="0" horiz-adv-x="677" d="M88 199q0 31 6 69l162 1149q42 287 322 287q247 0 247 -219q0 -31 -6 -68l-162 -1149q-42 -286 -321 -286q-248 0 -248 217zM317 264q-9 -63 50 -63q60 0 69 63l162 1157q9 64 -51 64q-59 0 -68 -64z" />
<glyph unicode="1" horiz-adv-x="417" d="M123 0l188 1343h-94l31 218h43q72 0 84 84l6 41h199l-236 -1686h-221z" />
<glyph unicode="2" horiz-adv-x="638" d="M49 0l43 307q22 155 66 249t168 251q107 137 155 227.5t62 202.5l26 180q9 64 -43 64q-48 0 -57 -64l-43 -299h-221l41 295q23 154 98 222.5t213 68.5q120 0 180 -53t60 -164q0 -33 -6 -74l-29 -205q-28 -216 -232 -475q-122 -151 -161 -233.5t-54 -192.5l-12 -84h322 l-31 -223h-545z" />
<glyph unicode="3" horiz-adv-x="641" d="M80 207q0 19 4 59l47 332h225l-47 -330q-9 -63 41 -63q53 0 62 63l59 422q9 64 -45 64h-86l31 211h96q40 0 49 63l55 389q9 64 -43 64q-48 0 -57 -64l-43 -301h-219l41 297q23 153 96.5 222t212.5 69q119 0 175.5 -50.5t56.5 -158.5q0 -30 -7 -84l-53 -383 q-9 -62 -38 -102.5t-85 -67.5q99 -37 78 -176l-57 -414q-19 -133 -98.5 -209.5t-213.5 -76.5q-117 0 -177 59.5t-60 165.5z" />
<glyph unicode="4" horiz-adv-x="661" d="M59 326l27 192l506 1168h207l-162 -1149h82l-29 -211h-82l-45 -326h-207l45 326h-342zM285 537h145q49 339 96 581q-61 -174 -241 -581z" />
<glyph unicode="5" horiz-adv-x="651" d="M90 195q0 31 6 69l49 354h220l-50 -350q-9 -63 43 -63q53 0 62 63l76 547q5 25 -9 41t-43 16q-32 0 -54.5 -21.5t-31.5 -57.5l-190 8l147 885h508l-30 -224h-308l-79 -444q57 51 155 51q156 0 156 -182q0 -35 -6 -78l-76 -545q-20 -143 -95.5 -212.5t-211.5 -69.5 q-238 0 -238 213z" />
<glyph unicode="6" horiz-adv-x="659" d="M90 205q0 21 4 61l162 1151q19 136 99 211.5t214 75.5q116 0 173 -57t57 -164q0 -43 -4 -66l-41 -291h-213l41 291q9 64 -43 64q-51 0 -60 -64l-57 -407q23 16 34.5 23t41 16.5t61.5 9.5q86 0 125 -40.5t39 -131.5q0 -39 -6 -88l-74 -531q-19 -136 -99.5 -211t-215.5 -75 q-118 0 -178 58.5t-60 164.5zM317 268q-9 -63 43 -63q51 0 60 63l72 514q9 64 -41 64q-42 0 -58 -37z" />
<glyph unicode="7" horiz-adv-x="595" d="M111 0q37 268 96 514t115 408t112 288.5t89.5 184t45.5 67.5h-342l31 224h551l-29 -207q-168 -288 -274 -653t-172 -826h-223z" />
<glyph unicode="8" horiz-adv-x="649" d="M82 197q0 31 6 69l57 412q21 146 131 196q-76 54 -59 179l51 364q41 287 293 287q221 0 221 -215q0 -35 -6 -72l-51 -364q-16 -122 -109 -179q43 -24 63.5 -74.5t10.5 -121.5l-57 -412q-40 -284 -314 -284q-237 0 -237 215zM309 268q-9 -63 43 -63q51 0 60 63l59 426 q3 27 -7.5 44.5t-35.5 17.5t-40.5 -18t-18.5 -44zM416 1024q-9 -61 43 -61q50 0 59 61l55 393q9 64 -43 64q-50 0 -59 -64z" />
<glyph unicode="9" horiz-adv-x="657" d="M92 268l41 291h219l-41 -291q-9 -63 43 -63q49 0 58 63l61 434q-22 -15 -34.5 -22.5t-42 -17t-60.5 -9.5q-84 0 -123 41t-39 131q0 39 6 88l72 504q19 136 98 211.5t213 75.5q118 0 179 -59.5t61 -165.5q0 -20 -4 -60l-162 -1151q-19 -136 -99.5 -211t-215.5 -75 q-126 0 -187.5 76.5t-42.5 209.5zM406 942q-9 -65 43 -65q40 0 53 38l71 502q9 64 -41 64t-59 -64z" />
<glyph unicode=":" horiz-adv-x="321" d="M57 0l35 256h207l-35 -256h-207zM162 750l35 254h206l-34 -254h-207z" />
<glyph unicode=";" horiz-adv-x="321" d="M63 45l29 211h207l-33 -231q-8 -65 -53 -108.5t-123 -43.5h-27l13 88h26q24 0 35.5 11t14.5 38l6 35h-95zM162 750l35 254h206l-34 -254h-207z" />
<glyph unicode="&#x3c;" horiz-adv-x="962" d="M174 756l29 202l858 234l-23 -166l-678 -164l631 -174l-24 -166z" />
<glyph unicode="=" horiz-adv-x="962" d="M152 584l22 168h825l-22 -168h-825zM205 967l22 168h826l-23 -168h-825z" />
<glyph unicode="&#x3e;" horiz-adv-x="962" d="M141 522l25 166l680 174l-633 164l23 166l792 -234l-29 -202z" />
<glyph unicode="?" horiz-adv-x="616" d="M174 0l35 256h207l-35 -256h-207zM199 1118l41 295q22 150 95.5 220.5t209.5 70.5q119 0 177 -53.5t58 -163.5q0 -35 -6 -76l-26 -194q-17 -116 -53 -195.5t-99 -144.5q-77 -75 -96 -116t-33 -147l-33 -231h-207l31 227q19 127 48 197.5t91 132.5q74 75 94 117.5 t37 161.5l29 198q9 64 -43 64q-50 0 -59 -64l-43 -299h-213z" />
<glyph unicode="@" horiz-adv-x="1075" d="M84 170q0 51 10 129l101 715q35 251 165 361t381 110q211 0 311.5 -80t100.5 -250q0 -28 -8 -102l-88 -617q-14 -111 -83 -171t-157 -60q-57 0 -100 20.5t-58 53.5q-14 -26 -47.5 -45t-81.5 -19q-159 0 -135 186l64 451q16 117 63.5 163t126.5 46q36 0 63 -19t36 -51 q3 36 12 60h106l-96 -678q18 -25 57 -25q71 0 82 80l88 629q16 120 -50 188t-228 68q-163 0 -247 -74t-105 -219l-101 -725q-6 -47 -6 -86q0 -131 73.5 -185.5t225.5 -54.5q306 0 330 135q3 18 0 25h143q4 -15 0 -37q-6 -51 -23 -92.5t-55 -82t-94 -68t-145.5 -44 t-206.5 -16.5q-206 0 -315 88.5t-109 292.5zM545 410q-9 -56 47 -56q28 0 49 31l68 485q-9 33 -41 33q-55 0 -64 -59z" />
<glyph unicode="A" horiz-adv-x="694" d="M18 0l441 1686h258l-43 -1686h-223l8 240h-164l-62 -240h-215zM344 442h119q19 411 37 672q-74 -344 -156 -672z" />
<glyph unicode="B" horiz-adv-x="671" d="M70 0l235 1686h279q116 0 169.5 -51.5t53.5 -159.5q0 -39 -6 -86l-49 -349q-8 -59 -36 -105t-67 -63q41 -12 63 -56q16 -31 15 -75q0 -17 -2 -36l-59 -420q-21 -148 -99.5 -216.5t-218.5 -68.5h-278zM324 223h55q50 0 59 64l58 411q1 10 1 19q0 45 -40 45h-58zM426 956 h57q52 0 58 64l53 379q1 10 1 18q0 45 -42 45h-55z" />
<glyph unicode="C" horiz-adv-x="636" d="M90 199q0 42 4 67l160 1147q43 291 319 291q222 0 222 -213q0 -27 -7 -74l-43 -299h-202l43 299q1 9 1 17q0 47 -44 47q-51 0 -60 -64l-161 -1149q-1 -9 -1 -17q0 -46 44 -46q50 0 59 63l49 350h203l-49 -348q-20 -148 -91 -218t-204 -70q-242 0 -242 217z" />
<glyph unicode="D" horiz-adv-x="673" d="M70 0l235 1686h273q118 0 177.5 -58t59.5 -166q0 -42 -4 -65l-156 -1110q-40 -287 -313 -287h-272zM324 223h49q52 0 61 64l156 1112q1 9 1 17q0 46 -44 46h-49z" />
<glyph unicode="E" horiz-adv-x="577" d="M70 0l235 1686h463l-31 -224h-239l-70 -491h152l-31 -223h-152l-73 -525h249l-30 -223h-473z" />
<glyph unicode="F" horiz-adv-x="557" d="M70 0l235 1686h473l-30 -224h-250l-70 -499h154l-33 -224h-154l-102 -739h-223z" />
<glyph unicode="G" horiz-adv-x="665" d="M88 197q0 33 6 71l162 1147q19 140 99 214.5t216 74.5q230 0 230 -219q0 -45 -4 -70l-43 -297h-201l43 299q1 8 1 15q0 49 -56 49q-53 0 -62 -64l-162 -1149q-1 -9 -1 -17q0 -46 44 -46q63 0 72 63l47 330h-71l28 213h287l-115 -821h-22l-64 67q-64 -75 -209 -75 q-225 0 -225 215z" />
<glyph unicode="H" horiz-adv-x="686" d="M70 0l235 1686h223l-100 -715h102l101 715h221l-236 -1686h-221l105 748h-103l-104 -748h-223z" />
<glyph unicode="I" d="M74 0l235 1686h223l-235 -1686h-223z" />
<glyph unicode="J" horiz-adv-x="444" d="M12 -2l33 221q30 -6 86 -6q57 0 66 74l196 1399h223l-196 -1399q-42 -299 -320 -299q-43 0 -88 10z" />
<glyph unicode="K" horiz-adv-x="722" d="M70 0l235 1686h223l-47 -336q-44 -303 -57 -371q59 176 274 707h238l-328 -752l113 -934h-254q-55 549 -68 803q-12 -115 -55 -438l-51 -365h-223z" />
<glyph unicode="L" horiz-adv-x="561" d="M70 0l235 1686h223l-204 -1463h249l-30 -223h-473z" />
<glyph unicode="M" horiz-adv-x="937" d="M66 0l235 1686h295l-16 -342t-12.5 -266t-9 -191.5t-7 -145t-5 -96.5t-4.5 -76t-5 -57q75 339 272 1174h299l-236 -1686h-202l65 475q55 374 96 592q-39 -162 -270 -1067h-188l33 1067q-27 -265 -72 -594l-66 -473h-202z" />
<glyph unicode="N" horiz-adv-x="731" d="M66 0l235 1686h256q12 -726 16 -1055q19 185 68 528l74 527h186l-235 -1686h-213q-56 771 -64 1032q-19 -189 -78 -598l-59 -434h-186z" />
<glyph unicode="O" horiz-adv-x="663" d="M88 201q0 29 6 67l162 1149q42 287 313 287q240 0 240 -219q0 -43 -4 -68l-162 -1149q-42 -286 -315 -286q-240 0 -240 219zM317 268q-1 -9 -1 -17q0 -46 44 -46q51 0 60 63l162 1149q1 9 1 17q0 47 -44 47q-51 0 -60 -64z" />
<glyph unicode="P" horiz-adv-x="665" d="M70 0l235 1686h273q132 0 196 -55.5t64 -170.5q0 -29 -7 -80l-38 -276q-22 -157 -104 -230t-234 -73h-52l-110 -801h-223zM434 1018h51q76 0 88 78l39 286q2 11 2 20q0 60 -67 60h-49z" />
<glyph unicode="Q" horiz-adv-x="663" d="M92 231q0 31 6 68l158 1118q42 287 313 287q240 0 240 -219q0 -43 -4 -68l-158 -1118q-35 -251 -252 -285q3 -39 90 -39q79 0 121 37l-22 -168q-51 -41 -148 -41q-104 0 -150 59q-35 47 -35 115q0 20 3 41q-162 34 -162 213zM319 287q-1 -9 -1 -17q0 -47 44 -47 q51 0 60 64l160 1130q1 9 1 17q0 47 -44 47q-51 0 -60 -64z" />
<glyph unicode="R" horiz-adv-x="681" d="M70 0l235 1686h266q134 0 199.5 -52.5t65.5 -169.5q0 -31 -7 -82l-49 -348q-12 -96 -42.5 -151t-86.5 -86q4 -208 4 -314q0 -163 -4 -483h-243q24 500 26 752h-37l-104 -752h-223zM426 954h45q75 0 84 78l49 350q2 11 2 21q0 59 -65 59h-43z" />
<glyph unicode="S" horiz-adv-x="641" d="M80 197q0 40 4 63l51 358h213l-51 -358q-1 -6 -1 -11q0 -44 48 -44q56 0 62 55l34 240q3 19 3 37q1 42 -15 77q-22 50 -111 185q-57 93 -83.5 161.5t-26.5 145.5q0 32 6 70l35 251q40 277 311 277q120 0 176 -49.5t56 -151.5q0 -29 -7 -76l-43 -309h-204l43 309q1 8 1 14 q0 40 -46 40q-53 0 -62 -54l-35 -249q-2 -16 -2 -31t1 -26.5t8 -28.5t11.5 -27.5t18.5 -34t22 -37t29.5 -47.5t34.5 -55q58 -96 82.5 -163.5t24.5 -139.5q0 -40 -6 -86l-35 -242q-39 -278 -310 -278q-237 0 -237 215z" />
<glyph unicode="T" horiz-adv-x="585" d="M182 0l205 1462h-164l31 224h549l-31 -224h-162l-204 -1462h-224z" />
<glyph unicode="U" horiz-adv-x="673" d="M96 199q0 44 4 69l199 1418h223l-198 -1418q-1 -9 -1 -17q0 -46 44 -46q50 0 59 63l199 1418h221l-199 -1418q-40 -286 -313 -286q-238 0 -238 217z" />
<glyph unicode="V" horiz-adv-x="700" d="M195 0l59 1686h231q-51 -990 -82 -1301q83 406 293 1301h222l-426 -1686h-297z" />
<glyph unicode="W" horiz-adv-x="1099" d="M180 0l74 1686h233q-70 -979 -86 -1176q38 179 285 1176h199q-48 -944 -64 -1176q33 179 262 1176h234l-424 -1686h-258q43 916 59 1085q-28 -150 -254 -1085h-260z" />
<glyph unicode="X" horiz-adv-x="704" d="M4 0l342 903l-67 783h237q6 -218 6 -326q0 -91 -4 -205q57 225 150 531h231l-295 -777l96 -909h-239q-21 428 -21 674q-50 -197 -209 -674h-227z" />
<glyph unicode="Y" horiz-adv-x="688" d="M227 0l101 719l-80 967h235q13 -424 13 -564v-75q50 172 198 639h217l-358 -967l-100 -719h-226z" />
<glyph unicode="Z" horiz-adv-x="634" d="M45 0l31 227l499 1241h-309l31 218h530l-28 -201l-492 -1258h316l-31 -227h-547z" />
<glyph unicode="[" horiz-adv-x="518" d="M121 -164l282 2013h334l-22 -159h-174l-238 -1694h174l-22 -160h-334z" />
<glyph unicode="\" horiz-adv-x="497" d="M242 1686h161l86 -1686h-161z" />
<glyph unicode="]" horiz-adv-x="518" d="M121 -164l22 160h174l238 1694h-174l22 159h334l-282 -2013h-334z" />
<glyph unicode="^" horiz-adv-x="663" d="M225 1114l242 572h201l82 -572h-158l-41 402l-166 -402h-160z" />
<glyph unicode="_" horiz-adv-x="630" d="M-33 -221l21 147h633l-21 -147h-633z" />
<glyph unicode="`" horiz-adv-x="618" d="M262 1673h256l178 -330h-192z" />
<glyph unicode="a" horiz-adv-x="585" d="M66 182l26 187q14 109 53.5 172t112.5 110q66 41 170 90l43 297q1 6 1 11q0 38 -40 38q-45 0 -51 -49l-39 -268h-176l39 268q35 250 260 250q203 0 203 -190q0 -20 -4 -60l-132 -932q-6 -49 -6 -78q0 -17 2 -28h-182q-6 26 0 63q-61 -81 -143 -81q-141 0 -141 146 q0 25 4 54zM268 219q-1 -4 -1 -8q0 -15 9 -23q11 -10 31 -10q25 0 47 31l52 371q-34 -13 -56 -33q-42 -31 -51 -98z" />
<glyph unicode="b" horiz-adv-x="624" d="M70 0l235 1686h201l-62 -435q49 37 119 37q158 0 158 -166q0 -30 -6 -67l-113 -795q-19 -135 -82 -202.5t-176 -67.5q-91 0 -137 80q-10 -30 -41 -70h-96zM303 233q9 -28 43 -28q49 0 55 53l109 770q1 6 1 11q0 40 -42 40q-32 0 -51 -28z" />
<glyph unicode="c" horiz-adv-x="583" d="M90 240l111 786q18 121 88 191.5t188 70.5q101 0 149 -51.5t48 -144.5q0 -41 -4 -64l-39 -274h-182l38 278q1 8 1 15q0 34 -37 34q-45 0 -54 -49l-110 -792q-1 -9 -2 -16q0 -38 39 -38q44 0 53 54l39 278h186l-39 -282q-18 -119 -85.5 -186.5t-184.5 -67.5t-169 70 q-38 52 -39 130q0 27 5 58z" />
<glyph unicode="d" horiz-adv-x="624" d="M84 170q0 19 4 59l117 826q17 120 70.5 176.5t146.5 56.5q69 0 106 -37l62 435h201l-236 -1686h-170q-1 7 -1 17q0 20 3 53q-26 -43 -60.5 -61.5t-95.5 -18.5q-70 0 -108.5 46.5t-38.5 133.5zM293 258q-1 -6 -1 -11q0 -42 44 -42q29 0 51 28l115 824q-12 26 -43 26 q-49 0 -58 -49z" />
<glyph unicode="e" horiz-adv-x="575" d="M84 172q0 28 6 66l111 790q38 260 264 260q201 0 201 -194q0 -43 -4 -66l-60 -428h-274l-52 -362q-2 -9 -2 -17q0 -35 35 -35q44 0 53 54l39 276h189l-39 -278q-38 -256 -270 -256q-197 0 -197 190zM348 743h86l39 285q1 6 1 12q0 39 -38 39q-43 0 -49 -51z" />
<glyph unicode="f" horiz-adv-x="391" d="M78 0l153 1094h-63l22 174h64l27 176q15 113 72.5 182.5t164.5 69.5q51 0 92 -13l-24 -170q-6 3 -27 3q-69 0 -80 -76l-24 -172h92l-23 -174h-92l-153 -1094h-201z" />
<glyph unicode="g" horiz-adv-x="624" d="M61 -127q0 3 5 61l8 52h180l-10 -62q-1 -6 -1 -11q0 -44 48 -44q51 0 57 55l25 172q-49 -37 -125 -37q-158 0 -158 164q0 31 6 68l107 747q15 115 71.5 177.5t137.5 62.5q55 0 85.5 -18.5t49.5 -61.5q7 46 14 70h170l-186 -1334q-36 -239 -273 -239q-113 0 -162 45 t-49 133zM297 303q-1 -5 -1 -10q0 -41 48 -41q32 0 55 29l105 753q-10 29 -47 29q-54 0 -60 -53z" />
<glyph unicode="h" horiz-adv-x="622" d="M70 0l235 1686h201l-64 -451q65 53 144 53q127 0 127 -162q0 -30 -6 -71l-148 -1055h-201l146 1042q1 6 1 12q0 38 -36 38q-28 0 -49 -21l-150 -1071h-200z" />
<glyph unicode="i" horiz-adv-x="346" d="M74 0l176 1268h201l-177 -1268h-200zM274 1430l35 256h201l-35 -256h-201z" />
<glyph unicode="j" d="M-72 -287l27 199q27 -6 76 -6q52 0 61 67l180 1295h201l-180 -1295q-20 -138 -92.5 -203t-198.5 -65q-28 0 -74 8zM297 1430l35 256h200l-34 -256h-201z" />
<glyph unicode="k" horiz-adv-x="614" d="M70 0l235 1686h197l-90 -648q-28 -198 -47 -301q19 52 114 293l94 238h205l-231 -545l61 -723h-219l-24 334q-14 260 -15 303q-5 -52 -39 -313l-45 -324h-196z" />
<glyph unicode="l" horiz-adv-x="339" d="M70 0l235 1686h201l-236 -1686h-200z" />
<glyph unicode="m" horiz-adv-x="911" d="M70 0l176 1268h170q1 -12 1 -25q0 -21 -3 -43q73 88 168 88q94 0 118 -80q70 80 172 80q127 0 127 -166q0 -34 -6 -78l-145 -1044h-201l146 1042q1 6 1 12q0 38 -36 38q-25 0 -49 -21l-150 -1071h-201l146 1042q1 6 1 12q0 38 -36 38q-28 0 -49 -21l-150 -1071h-200z" />
<glyph unicode="n" horiz-adv-x="622" d="M70 0l176 1268h170q1 -12 1 -25q0 -21 -3 -43q73 88 168 88q131 0 131 -162q0 -30 -6 -71l-148 -1055h-201l146 1042q1 6 1 12q0 38 -36 38q-28 0 -49 -21l-150 -1071h-200z" />
<glyph unicode="o" horiz-adv-x="598" d="M86 172q0 38 4 61l111 801q39 254 278 254q209 0 209 -192q0 -42 -4 -62l-111 -801q-19 -123 -89 -187t-189 -64q-209 0 -209 190zM287 242q-1 -7 -1 -13q0 -43 38 -43q47 0 53 56l110 784q1 7 1 13q0 42 -37 42q-48 0 -54 -55z" />
<glyph unicode="p" horiz-adv-x="624" d="M29 -285l217 1553h170q1 -7 1 -18q0 -20 -3 -52q26 43 60 61.5t95 18.5q70 0 109 -46.5t39 -133.5q0 -20 -4 -60l-117 -825q-17 -120 -70.5 -175.5t-146.5 -55.5q-73 0 -107 34l-43 -301h-200zM299 211q12 -27 43 -27q48 0 57 49l109 779q1 6 1 11q0 42 -42 42 q-32 0 -51 -29z" />
<glyph unicode="q" horiz-adv-x="624" d="M80 145q0 30 6 68l117 825q15 115 71.5 177.5t137.5 62.5q62 0 92.5 -19t42.5 -61q2 24 14 70h170l-217 -1553h-201l43 301q-45 -34 -118 -34q-158 0 -158 163zM291 233q-1 -7 -1 -14q0 -35 42 -35q33 0 51 27l117 829q-13 29 -43 29q-49 0 -58 -53z" />
<glyph unicode="r" horiz-adv-x="423" d="M70 0l176 1268h170q1 -13 1 -26q0 -21 -3 -40q51 80 133 80q23 0 35 -6l-31 -225q-21 16 -64 16q-55 0 -73 -35l-144 -1032h-200z" />
<glyph unicode="s" horiz-adv-x="573" d="M76 170q0 19 4 59l29 195h182l-27 -191q-1 -8 -1 -15q0 -38 40 -38q42 0 51 53l19 132q2 13 2 25q0 35 -13 64q-17 39 -88 138q-53 75 -76.5 129.5t-23.5 130.5q0 38 6 84l13 96q20 137 86.5 196.5t181.5 59.5q112 0 159.5 -40.5t47.5 -129.5q0 -12 -9 -86l-26 -194h-182 l26 196q1 8 1 15q0 38 -40 38q-22 0 -33 -12.5t-16 -40.5l-18 -131q-2 -16 -2 -30q-1 -38 13 -68q18 -40 91 -135q58 -73 80 -124.5t22 -115.5q0 -22 -8 -96l-14 -115q-18 -125 -88 -181t-195 -56q-194 0 -194 188z" />
<glyph unicode="t" horiz-adv-x="391" d="M106 182q0 4 5 62l120 850h-63l22 174h64l57 401h201l-57 -401h92l-23 -174h-92l-119 -846q-2 -13 -2 -24q-1 -32 15 -47q20 -21 69 -21l-22 -170q-46 -4 -64 -4q-203 0 -203 200z" />
<glyph unicode="u" horiz-adv-x="618" d="M90 203l150 1065h200l-143 -1032q-2 -9 -2 -17q0 -33 33 -33q28 0 49 21l147 1061h201l-176 -1268h-170q-1 14 -1 26q0 21 3 42q-67 -78 -162 -78q-73 0 -107 58q-25 42 -25 107q0 22 3 48z" />
<glyph unicode="v" horiz-adv-x="571" d="M182 0l11 1268h200q-21 -570 -41 -762q13 61 185 762h192l-348 -1268h-199z" />
<glyph unicode="w" horiz-adv-x="870" d="M127 0l70 1268h184q-44 -623 -68 -885l207 885h178q-40 -770 -51 -885q7 39 19.5 96.5t29 131t58 259.5t88.5 398h182l-299 -1268h-231q41 748 49 817q-20 -113 -187 -817h-229z" />
<glyph unicode="x" horiz-adv-x="587" d="M8 0l248 680l-45 588h209v-123q0 -198 -6 -303q5 17 21 82.5t38.5 147.5t56.5 196h199l-211 -584l62 -684h-207q-11 416 -11 438q0 21 1.5 56.5t1.5 52.5q-8 -39 -22 -91t-26 -93t-47.5 -159t-60.5 -204h-201z" />
<glyph unicode="y" horiz-adv-x="571" d="M-4 -287l24 199q30 -6 70 -6t63.5 36t39.5 109v1217h208q-29 -580 -53 -824q27 140 191 824h190l-340 -1241q-46 -170 -114 -246t-205 -76q-34 0 -74 8z" />
<glyph unicode="z" horiz-adv-x="526" d="M45 0l27 190l370 881h-243l26 197h434l-24 -187l-361 -876h236l-29 -205h-436z" />
<glyph unicode="{" horiz-adv-x="581" d="M143 844l189 194q22 23 31.5 43t15.5 56l57 415q42 297 357 297h16l-23 -159h-14q-81 0 -125.5 -35.5t-54.5 -112.5l-57 -407q-7 -60 -27 -100t-64 -85l-104 -106l74 -109q31 -45 39.5 -83.5t-0.5 -100.5l-58 -408q-10 -77 24.5 -112t115.5 -35h14l-23 -160h-16 q-279 0 -279 230q0 23 7 67l57 416q4 41 0 57t-19 41z" />
<glyph unicode="|" horiz-adv-x="430" d="M109 -164l282 2013h162l-283 -2013h-161z" />
<glyph unicode="}" horiz-adv-x="581" d="M2 -164l23 160h14q81 0 125.5 35t54.5 112l57 408q9 60 29 99.5t64 84.5l102 109l-72 106q-31 44 -39.5 84t-1.5 101l58 407q10 77 -24.5 112.5t-115.5 35.5h-14l23 159h16q279 0 279 -233q0 -35 -5 -64l-57 -415q-4 -41 0 -57.5t19 -41.5l131 -194l-187 -197 q-22 -23 -31.5 -42.5t-15.5 -55.5l-57 -416q-44 -297 -359 -297h-16z" />
<glyph unicode="~" horiz-adv-x="964" d="M170 717l27 196q95 72 221 72q69 0 137.5 -21.5t128.5 -43t107 -21.5q70 0 125.5 21.5t119.5 78.5l-26 -194q-109 -70 -250 -70q-68 0 -184.5 43t-174.5 43q-61 0 -116 -22.5t-115 -81.5z" />
<glyph unicode="&#xa1;" horiz-adv-x="378" d="M76 0l117 838l118 522h140l-29 -518l-119 -842h-227zM281 1462l30 224h228l-31 -224h-227z" />
<glyph unicode="&#xa2;" horiz-adv-x="579" d="M119 442l108 779q15 111 79 180t169 78l29 207h63l-28 -207q161 -17 161 -193q0 -40 -4 -63l-39 -279h-159l41 283q2 18 -9.5 31.5t-29.5 13.5l-125 -881q45 4 53 51l37 269h164l-37 -273q-16 -110 -75.5 -176.5t-160.5 -75.5l-24 -186h-64l25 184q-101 7 -145.5 77 t-28.5 181zM295 442q-8 -49 37 -49l125 879q-20 -1 -34.5 -14.5t-16.5 -30.5z" />
<glyph unicode="&#xa3;" horiz-adv-x="589" d="M31 -18l28 204q47 47 113 58q23 99 35.5 173.5t36.5 246.5l37 268h-111l25 168h110l39 282q22 153 101 237.5t204 84.5q60 0 107 -12l-31 -207q-32 14 -61 14q-49 0 -85.5 -36.5t-41.5 -78.5l-41 -284h176l-25 -168h-176l-37 -270q-39 -278 -86 -463q60 -25 84 -25 q79 0 146 70h10l-29 -201q-62 -59 -160 -59q-43 0 -113.5 35.5t-107.5 35.5q-73 0 -139 -73h-8z" />
<glyph unicode="&#xa4;" horiz-adv-x="1021" d="M86 434l156 133q-54 102 -39 234q17 122 106 235q-79 83 -119 129l138 121l108 -139q112 76 246 76q130 0 225 -76l146 139l100 -121l-149 -129q43 -76 43 -176q0 -9 -5 -59q-18 -133 -106 -234l117 -133l-135 -121l-109 142q-125 -74 -244 -74q-129 0 -223 74l-154 -142 zM385 801q-14 -100 45.5 -169t159.5 -69q99 0 178 69.5t92 168.5q14 98 -45.5 167.5t-157.5 69.5q-100 0 -179 -69.5t-93 -167.5z" />
<glyph unicode="&#xa5;" horiz-adv-x="704" d="M53 168l25 168h213l20 153h-213l25 168h213l6 54l-88 975h235q15 -446 15 -639q23 83 196 639h220l-369 -975l-6 -54h213l-25 -168h-213l-20 -153h213l-25 -168h-213l-22 -168h-209l22 168h-213z" />
<glyph unicode="&#xa6;" horiz-adv-x="430" d="M109 -164l118 846h162l-119 -846h-161zM272 1004l119 845h162l-119 -845h-162z" />
<glyph unicode="&#xa7;" horiz-adv-x="593" d="M49 -45l27 184h184l-27 -184q-6 -47 39 -47q48 0 54 47l12 82q7 55 -11 97.5t-94 158.5q-49 79 -71.5 138t-22.5 124q0 40 4 63l31 216q11 88 62.5 138t123.5 56q-51 81 -76.5 145t-25.5 142q0 19 4 59l12 92q35 238 267 238q103 0 150.5 -43.5t47.5 -132.5q0 -39 -4 -62 l-20 -143h-176l20 143q6 45 -39 45q-47 0 -53 -45l-12 -90q-2 -13 -2.5 -23.5t1.5 -22.5t3.5 -20t8 -23t10 -22.5t15 -27t17.5 -29.5t23 -37.5t26 -42.5q52 -82 74 -139.5t22 -120.5q0 -34 -6 -75l-29 -207q-13 -91 -60.5 -149.5t-111.5 -69.5q48 -78 68.5 -134.5 t20.5 -117.5q0 -29 -7 -76l-12 -84q-32 -240 -266 -240q-233 0 -201 240zM330 565q-6 -47 39 -47t51 47l37 254q6 47 -39 47t-51 -47z" />
<glyph unicode="&#xa8;" horiz-adv-x="657" d="M260 1368l37 256h201l-37 -256h-201zM578 1368l36 256h201l-37 -256h-200z" />
<glyph unicode="&#xaa;" horiz-adv-x="444" d="M184 715l15 102q6 45 19 76.5t41 55t47.5 34.5t66.5 34q7 3 10 5l23 164q3 26 -21 26q-26 0 -29 -26l-20 -148h-96l20 148q18 137 141 137q129 0 111 -137l-72 -512q-7 -47 -2 -60h-100q-4 9 0 35q-33 -45 -78 -45q-93 0 -76 111zM295 735q-3 -22 20 -22q17 0 27 16 l29 205q-29 -15 -42 -30t-16 -44z" />
<glyph unicode="&#xab;" horiz-adv-x="794" d="M111 565l32 236l363 205l-27 -187l-246 -135l207 -143l-28 -195zM508 565l33 236l362 205l-26 -187l-246 -135l207 -143l-29 -195z" />
<glyph unicode="&#xac;" horiz-adv-x="890" d="M137 733l29 213h786l-131 -946h-207l103 733h-580z" />
<glyph unicode="&#xad;" d="M127 764l25 170h333l-24 -170h-334z" />
<glyph unicode="&#xaf;" horiz-adv-x="626" d="M266 1409l25 172h487l-24 -172h-488z" />
<glyph unicode="&#xb0;" horiz-adv-x="628" d="M256 1415q16 122 93 198.5t200 76.5t180 -76.5t41 -198.5q-18 -122 -95.5 -195t-201.5 -73t-179.5 73t-37.5 195zM375 1415q-12 -78 15.5 -112.5t96.5 -34.5q71 0 107.5 34.5t48.5 112.5q11 80 -16 116t-97 36q-68 0 -106.5 -36.5t-48.5 -115.5z" />
<glyph unicode="&#xb1;" horiz-adv-x="962" d="M96 182l23 166h825l-22 -166h-826zM178 776l23 166h329l48 328h165l-47 -328h330l-22 -166h-330l-47 -332h-166l47 332h-330z" />
<glyph unicode="&#xb2;" horiz-adv-x="380" d="M174 864l23 154q11 78 32.5 125.5t83.5 124.5q52 68 76.5 113.5t32.5 101.5l12 90q3 31 -20 31q-26 0 -29 -31l-23 -150h-110l22 148q10 76 48 110.5t108 34.5q68 0 97 -35.5t20 -109.5l-15 -103q-18 -116 -118 -237q-61 -76 -81 -117.5t-26 -95.5l-6 -43h162l-17 -111 h-272z" />
<glyph unicode="&#xb3;" horiz-adv-x="380" d="M190 997l25 166h113l-25 -166q-3 -30 21 -30q27 0 30 30l31 211q3 33 -23 33h-43l15 105h49q22 0 25 32l28 195q3 31 -22 31q-26 0 -29 -31l-23 -152h-108l22 150q10 76 47.5 110.5t106.5 34.5t96 -35t15 -112l-27 -191q-6 -61 -61 -86q51 -17 39 -88l-29 -207 q-9 -67 -49 -105t-107 -38q-66 0 -96 38.5t-21 104.5z" />
<glyph unicode="&#xb4;" horiz-adv-x="618" d="M299 1343l268 330h256l-331 -330h-193z" />
<glyph unicode="&#xb6;" horiz-adv-x="903" d="M90 -285l21 152q24 -4 32 -4q42 0 63 27.5t30 91.5l174 1239q-109 0 -151 60.5t-28 166.5q15 107 76 172.5t172 65.5h629l-29 -213h-125l-245 -1747h-185l246 1747h-135l-217 -1532q-14 -105 -77 -172.5t-163 -67.5q-45 0 -88 14zM375 1401q-10 -68 31 -68h20l20 140h-20 q-21 0 -34.5 -20.5t-16.5 -51.5z" />
<glyph unicode="&#xb7;" horiz-adv-x="321" d="M158 717l35 256h206l-34 -256h-207z" />
<glyph unicode="&#xb8;" horiz-adv-x="305" d="M43 -188l20 147h166l-24 -176q-14 -88 -113 -88h-47l8 63h41q21 0 27 25l4 29h-82z" />
<glyph unicode="&#xb9;" horiz-adv-x="270" d="M211 864l94 672h-47l16 109h21q35 0 41 41l4 20h100l-118 -842h-111z" />
<glyph unicode="&#xba;" horiz-adv-x="452" d="M197 743l61 441q19 139 152 139t114 -139l-61 -441q-22 -139 -154 -139q-134 0 -112 139zM305 748q-3 -14 3.5 -22.5t17.5 -8.5q22 0 28 31l60 432q6 28 -21 28q-22 0 -28 -28z" />
<glyph unicode="&#xbb;" horiz-adv-x="794" d="M80 346l29 195l243 143l-205 135l27 187l301 -205l-33 -236zM477 346l29 195l244 143l-205 135l26 187l301 -205l-32 -236z" />
<glyph unicode="&#xbc;" horiz-adv-x="991" d="M57 0l987 1686h125l-985 -1686h-127zM303 864l94 672h-47l17 109h20q35 0 41 41l4 20h100l-118 -842h-111zM621 141l14 97l254 583h102l-80 -573h41l-16 -107h-41l-23 -161h-102l23 161h-172zM735 248h74q4 30 45 291q-21 -66 -119 -291z" />
<glyph unicode="&#xbd;" horiz-adv-x="991" d="M57 0l987 1686h125l-985 -1686h-127zM303 864l94 672h-47l17 109h20q35 0 41 41l4 20h100l-118 -842h-111zM637 -20l22 153q11 78 33 125.5t84 124.5q52 68 76.5 113.5t32.5 101.5l12 90q3 31 -20 31q-26 0 -29 -31l-23 -149h-110l22 147q10 76 48 110.5t108 34.5 q68 0 97 -35.5t20 -109.5l-15 -102q-18 -118 -118 -238q-61 -76 -81 -117.5t-26 -95.5l-6 -43h162l-17 -110h-272z" />
<glyph unicode="&#xbe;" horiz-adv-x="991" d="M57 0l987 1686h125l-985 -1686h-127zM233 997l25 166h113l-25 -166q-3 -30 21 -30q27 0 30 30l31 211q3 33 -22 33h-44l15 105h49q22 0 25 32l28 195q3 31 -22 31q-26 0 -29 -31l-22 -152h-109l22 150q10 76 47.5 110.5t106.5 34.5t96 -35t15 -112l-27 -191 q-6 -61 -61 -86q51 -17 39 -88l-29 -207q-9 -67 -49 -105t-107 -38q-66 0 -96 38.5t-21 104.5zM580 141l14 97l254 583h102l-80 -573h41l-16 -107h-41l-23 -161h-102l23 161h-172zM694 248h74q4 30 45 291q-21 -66 -119 -291z" />
<glyph unicode="&#xbf;" horiz-adv-x="616" d="M76 199q0 35 6 75l27 195q17 117 52.5 196t98.5 144q77 75 96 115.5t33 146.5l33 232h207l-31 -228q-19 -127 -48 -197.5t-91 -132.5q-53 -54 -74 -84t-33 -69.5t-24 -124.5l-29 -199q-9 -63 43 -63q50 0 59 63l43 299h213l-41 -295q-22 -150 -95.5 -220t-209.5 -70 q-119 0 -177 53.5t-58 163.5zM440 1430l35 256h207l-35 -256h-207z" />
<glyph unicode="&#xc0;" horiz-adv-x="694" d="M18 0l441 1686h258l-43 -1686h-223l8 240h-164l-62 -240h-215zM295 2091h256l178 -330h-192zM344 442h119q19 411 37 672q-74 -344 -156 -672z" />
<glyph unicode="&#xc1;" horiz-adv-x="694" d="M18 0l441 1686h258l-43 -1686h-223l8 240h-164l-62 -240h-215zM344 442h119q19 411 37 672q-74 -344 -156 -672zM455 1761l268 330h256l-332 -330h-192z" />
<glyph unicode="&#xc2;" horiz-adv-x="694" d="M18 0l441 1686h258l-43 -1686h-223l8 240h-164l-62 -240h-215zM285 1761l243 330h236l141 -330h-194l-86 224l-156 -224h-184zM344 442h119q19 411 37 672q-74 -344 -156 -672z" />
<glyph unicode="&#xc3;" horiz-adv-x="694" d="M18 0l441 1686h258l-43 -1686h-223l8 240h-164l-62 -240h-215zM344 442h119q19 411 37 672q-74 -344 -156 -672zM344 1815l25 165q50 50 135 50q51 0 129.5 -30t124.5 -30q43 0 70 11t51 42h4l-25 -168q-55 -49 -135 -49q-51 0 -130.5 32t-123.5 32q-69 0 -121 -55h-4z " />
<glyph unicode="&#xc4;" horiz-adv-x="694" d="M18 0l441 1686h258l-43 -1686h-223l8 240h-164l-62 -240h-215zM336 1786l37 256h200l-36 -256h-201zM344 442h119q19 411 37 672q-74 -344 -156 -672zM653 1786l37 256h201l-37 -256h-201z" />
<glyph unicode="&#xc5;" horiz-adv-x="694" d="M18 0l441 1686h258l-43 -1686h-223l8 240h-164l-62 -240h-215zM344 442h119q19 411 37 672q-74 -344 -156 -672zM410 1927q11 74 69 119t156 45q100 0 147.5 -45.5t36.5 -118.5q-9 -71 -69 -115.5t-160 -44.5q-98 0 -143.5 44t-36.5 116zM504 1927q-6 -42 17.5 -60 t80.5 -18t84 18.5t33 59.5q6 43 -16 62.5t-78 19.5q-109 0 -121 -82z" />
<glyph unicode="&#xc6;" horiz-adv-x="966" d="M18 0l443 1686h698l-31 -224h-239l-70 -491h152l-31 -223h-152l-73 -525h248l-31 -223h-473l33 240h-195l-61 -240h-218zM348 442h172l144 1020h-60z" />
<glyph unicode="&#xc7;" horiz-adv-x="636" d="M90 199q0 42 4 67l160 1147q43 291 319 291q222 0 222 -213q0 -27 -7 -74l-43 -299h-202l43 299q9 64 -43 64q-51 0 -60 -64l-161 -1149q-9 -63 43 -63q50 0 59 63l49 350h203l-49 -348q-20 -148 -91 -218t-204 -70q-242 0 -242 217zM229 -188l21 147h166l-25 -176 q-14 -88 -112 -88h-48l9 63h41q20 0 26 25l4 29h-82z" />
<glyph unicode="&#xc8;" horiz-adv-x="577" d="M70 0l235 1686h463l-31 -224h-239l-70 -491h152l-31 -223h-152l-73 -525h249l-30 -223h-473zM240 2091h256l178 -330h-193z" />
<glyph unicode="&#xc9;" horiz-adv-x="577" d="M70 0l235 1686h463l-31 -224h-239l-70 -491h152l-31 -223h-152l-73 -525h249l-30 -223h-473zM399 1761l269 330h256l-332 -330h-193z" />
<glyph unicode="&#xca;" horiz-adv-x="577" d="M70 0l235 1686h463l-31 -224h-239l-70 -491h152l-31 -223h-152l-73 -525h249l-30 -223h-473zM236 1761l243 330h236l141 -330h-194l-87 224l-155 -224h-184z" />
<glyph unicode="&#xcb;" horiz-adv-x="577" d="M70 0l235 1686h463l-31 -224h-239l-70 -491h152l-31 -223h-152l-73 -525h249l-30 -223h-473zM285 1786l37 256h200l-37 -256h-200zM602 1786l37 256h201l-37 -256h-201z" />
<glyph unicode="&#xcc;" d="M74 0l235 1686h223l-235 -1686h-223zM137 2091h256l178 -330h-192z" />
<glyph unicode="&#xcd;" d="M74 0l235 1686h223l-235 -1686h-223zM297 1761l268 330h256l-332 -330h-192z" />
<glyph unicode="&#xce;" d="M74 0l235 1686h223l-235 -1686h-223zM123 1761l244 330h235l141 -330h-194l-86 224l-156 -224h-184z" />
<glyph unicode="&#xcf;" d="M74 0l235 1686h223l-235 -1686h-223zM176 1786l37 256h201l-37 -256h-201zM494 1786l36 256h201l-37 -256h-200z" />
<glyph unicode="&#xd0;" horiz-adv-x="671" d="M68 0l104 748h-53l31 223h53l100 715h272q118 0 178 -58t60 -166q0 -42 -4 -65l-156 -1110q-40 -287 -313 -287h-272zM322 223h49q52 0 61 64l156 1112q9 63 -43 63h-49l-70 -491h63l-30 -223h-64z" />
<glyph unicode="&#xd1;" horiz-adv-x="731" d="M66 0l235 1686h256q12 -726 16 -1055q19 185 68 528l74 527h186l-235 -1686h-213q-56 771 -64 1032q-19 -189 -78 -598l-59 -434h-186zM362 1815l25 165q50 50 135 50q51 0 129.5 -30t124.5 -30q43 0 70 11t51 42h4l-24 -168q-55 -49 -136 -49q-51 0 -130.5 32t-123.5 32 q-68 0 -120 -55h-5z" />
<glyph unicode="&#xd2;" horiz-adv-x="663" d="M88 201q0 29 6 67l162 1149q42 287 313 287q240 0 240 -219q0 -43 -4 -68l-162 -1149q-42 -286 -315 -286q-240 0 -240 219zM281 2091h256l178 -330h-193zM317 268q-9 -63 43 -63q51 0 60 63l162 1149q9 64 -43 64q-51 0 -60 -64z" />
<glyph unicode="&#xd3;" horiz-adv-x="663" d="M88 201q0 29 6 67l162 1149q42 287 313 287q240 0 240 -219q0 -43 -4 -68l-162 -1149q-42 -286 -315 -286q-240 0 -240 219zM317 268q-9 -63 43 -63q51 0 60 63l162 1149q9 64 -43 64q-51 0 -60 -64zM440 1761l269 330h256l-332 -330h-193z" />
<glyph unicode="&#xd4;" horiz-adv-x="663" d="M88 201q0 29 6 67l162 1149q42 287 313 287q240 0 240 -219q0 -43 -4 -68l-162 -1149q-42 -286 -315 -286q-240 0 -240 219zM270 1761l244 330h236l141 -330h-195l-86 224l-155 -224h-185zM317 268q-9 -63 43 -63q51 0 60 63l162 1149q9 64 -43 64q-51 0 -60 -64z" />
<glyph unicode="&#xd5;" horiz-adv-x="663" d="M88 201q0 29 6 67l162 1149q42 287 313 287q240 0 240 -219q0 -43 -4 -68l-162 -1149q-42 -286 -315 -286q-240 0 -240 219zM317 268q-9 -63 43 -63q51 0 60 63l162 1149q9 64 -43 64q-51 0 -60 -64zM330 1815l24 165q50 50 135 50q51 0 129.5 -30t124.5 -30q43 0 70 11 t51 42h4l-24 -168q-55 -49 -135 -49q-51 0 -130.5 32t-123.5 32q-69 0 -121 -55h-4z" />
<glyph unicode="&#xd6;" horiz-adv-x="663" d="M88 201q0 29 6 67l162 1149q42 287 313 287q240 0 240 -219q0 -43 -4 -68l-162 -1149q-42 -286 -315 -286q-240 0 -240 219zM317 268q-9 -63 43 -63q51 0 60 63l162 1149q9 64 -43 64q-51 0 -60 -64zM319 1786l37 256h201l-37 -256h-201zM637 1786l37 256h200l-36 -256 h-201z" />
<glyph unicode="&#xd7;" horiz-adv-x="962" d="M217 627l264 231l-198 234l133 116l200 -231l267 233l98 -118l-264 -234l201 -233l-134 -117l-202 233l-267 -233z" />
<glyph unicode="&#xd8;" horiz-adv-x="663" d="M29 -193l94 259q-35 50 -35 131q0 33 6 71l162 1149q42 287 313 287q87 0 138 -29l73 203h88l-94 -260q35 -53 35 -137q0 -41 -4 -64l-162 -1149q-42 -286 -315 -286q-88 0 -140 28l-73 -203h-86zM317 268q-9 -63 43 -63q51 0 60 63l86 613l-166 -455zM393 813l166 455 l23 149q9 64 -43 64q-51 0 -60 -64z" />
<glyph unicode="&#xd9;" horiz-adv-x="673" d="M96 199q0 44 4 69l199 1418h223l-198 -1418q-9 -63 43 -63q50 0 59 63l199 1418h221l-199 -1418q-40 -286 -313 -286q-238 0 -238 217zM287 2091h256l178 -330h-193z" />
<glyph unicode="&#xda;" horiz-adv-x="673" d="M96 199q0 44 4 69l199 1418h223l-198 -1418q-9 -63 43 -63q50 0 59 63l199 1418h221l-199 -1418q-40 -286 -313 -286q-238 0 -238 217zM444 1761l269 330h256l-332 -330h-193z" />
<glyph unicode="&#xdb;" horiz-adv-x="673" d="M96 199q0 44 4 69l199 1418h223l-198 -1418q-9 -63 43 -63q50 0 59 63l199 1418h221l-199 -1418q-40 -286 -313 -286q-238 0 -238 217zM274 1761l244 330h236l141 -330h-195l-86 224l-155 -224h-185z" />
<glyph unicode="&#xdc;" horiz-adv-x="673" d="M96 199q0 44 4 69l199 1418h223l-198 -1418q-9 -63 43 -63q50 0 59 63l199 1418h221l-199 -1418q-40 -286 -313 -286q-238 0 -238 217zM326 1786l36 256h201l-37 -256h-200zM643 1786l37 256h201l-37 -256h-201z" />
<glyph unicode="&#xdd;" horiz-adv-x="688" d="M227 0l101 719l-80 967h235q13 -424 13 -564v-75q50 172 198 639h217l-358 -967l-100 -719h-226zM457 1761l268 330h256l-332 -330h-192z" />
<glyph unicode="&#xde;" horiz-adv-x="677" d="M70 0l235 1686h223l-41 -300h56q133 0 198.5 -56.5t65.5 -174.5q0 -31 -6 -72l-74 -518q-20 -147 -107 -225t-235 -78h-57l-35 -262h-223zM360 485h58q77 0 86 80l74 518q12 80 -68 80h-55z" />
<glyph unicode="&#xdf;" horiz-adv-x="677" d="M70 0l202 1452q36 252 277 252q119 0 170.5 -64.5t34.5 -187.5l-60 -430q-5 -38 -24 -68.5t-35 -42.5q112 -39 90 -200l-66 -469q-19 -134 -81 -197t-183 -63q-33 0 -69 6l28 202q18 -6 52 -6q48 0 57 58l67 477q6 57 -41 57h-77l26 193h15q37 0 47 53l59 422 q6 55 -39 55t-51 -55l-203 -1444h-196z" />
<glyph unicode="&#xe0;" horiz-adv-x="585" d="M66 182l26 187q14 109 53.5 172t112.5 110q66 41 170 90l43 297q6 49 -39 49t-51 -49l-39 -268h-176l39 268q35 250 260 250q203 0 203 -190q0 -20 -4 -60l-132 -932q-10 -79 -4 -106h-182q-6 26 0 63q-61 -81 -143 -81q-165 0 -137 200zM184 1673h256l178 -330h-192z M268 219q-3 -20 8 -30.5t31 -10.5q25 0 47 31l52 371q-34 -13 -56 -33q-42 -31 -51 -98z" />
<glyph unicode="&#xe1;" horiz-adv-x="585" d="M66 182l26 187q14 109 53.5 172t112.5 110q66 41 170 90l43 297q6 49 -39 49t-51 -49l-39 -268h-176l39 268q35 250 260 250q203 0 203 -190q0 -20 -4 -60l-132 -932q-10 -79 -4 -106h-182q-6 26 0 63q-61 -81 -143 -81q-165 0 -137 200zM268 219q-3 -20 8 -30.5 t31 -10.5q25 0 47 31l52 371q-34 -13 -56 -33q-42 -31 -51 -98zM344 1343l268 330h256l-331 -330h-193z" />
<glyph unicode="&#xe2;" horiz-adv-x="585" d="M66 182l26 187q14 109 53.5 172t112.5 110q66 41 170 90l43 297q6 49 -39 49t-51 -49l-39 -268h-176l39 268q35 250 260 250q203 0 203 -190q0 -20 -4 -60l-132 -932q-10 -79 -4 -106h-182q-6 26 0 63q-61 -81 -143 -81q-165 0 -137 200zM172 1343l244 330h235l142 -330 h-195l-86 224l-156 -224h-184zM268 219q-3 -20 8 -30.5t31 -10.5q25 0 47 31l52 371q-34 -13 -56 -33q-42 -31 -51 -98z" />
<glyph unicode="&#xe3;" horiz-adv-x="585" d="M66 182l26 187q14 109 53.5 172t112.5 110q66 41 170 90l43 297q6 49 -39 49t-51 -49l-39 -268h-176l39 268q35 250 260 250q203 0 203 -190q0 -20 -4 -60l-132 -932q-10 -79 -4 -106h-182q-6 26 0 63q-61 -81 -143 -81q-165 0 -137 200zM233 1397l25 166q49 49 135 49 q51 0 129.5 -30t124.5 -30q43 0 70 11.5t51 42.5h4l-24 -168q-55 -49 -136 -49q-51 0 -130.5 31.5t-123.5 31.5q-68 0 -120 -55h-5zM268 219q-3 -20 8 -30.5t31 -10.5q25 0 47 31l52 371q-34 -13 -56 -33q-42 -31 -51 -98z" />
<glyph unicode="&#xe4;" horiz-adv-x="585" d="M66 182l26 187q14 109 53.5 172t112.5 110q66 41 170 90l43 297q6 49 -39 49t-51 -49l-39 -268h-176l39 268q35 250 260 250q203 0 203 -190q0 -20 -4 -60l-132 -932q-10 -79 -4 -106h-182q-6 26 0 63q-61 -81 -143 -81q-165 0 -137 200zM225 1368l37 256h201l-37 -256 h-201zM268 219q-3 -20 8 -30.5t31 -10.5q25 0 47 31l52 371q-34 -13 -56 -33q-42 -31 -51 -98zM543 1368l37 256h200l-37 -256h-200z" />
<glyph unicode="&#xe5;" horiz-adv-x="585" d="M66 182l26 187q14 109 53.5 172t112.5 110q66 41 170 90l43 297q6 49 -39 49t-51 -49l-39 -268h-176l39 268q35 250 260 250q203 0 203 -190q0 -20 -4 -60l-132 -932q-10 -79 -4 -106h-182q-6 26 0 63q-61 -81 -143 -81q-165 0 -137 200zM268 219q-3 -20 8 -30.5 t31 -10.5q25 0 47 31l52 371q-34 -13 -56 -33q-42 -31 -51 -98zM299 1509q11 74 69 119t156 45q100 0 148 -45.5t37 -118.5q-9 -71 -69.5 -115t-160.5 -44q-98 0 -143.5 43.5t-36.5 115.5zM393 1509q-6 -42 18 -59.5t81 -17.5t83.5 18t32.5 59q6 43 -16 62.5t-78 19.5 q-109 0 -121 -82z" />
<glyph unicode="&#xe6;" horiz-adv-x="849" d="M66 182l26 187q14 109 53.5 172t112.5 110q66 41 170 90l43 297q6 49 -39 49t-51 -49l-39 -268h-176l39 268q35 250 260 250q87 0 137 -35q56 35 139 35q201 0 201 -192q0 -30 -6 -68l-59 -428h-275l-51 -362q-9 -52 35 -52t53 54l39 276h186l-39 -278 q-38 -256 -268 -256q-66 0 -100.5 22t-55.5 70q-56 -92 -184 -92q-83 0 -124 49t-27 151zM268 219q-3 -20 8 -30.5t31 -10.5q25 0 47 31l52 371q-34 -13 -56 -33q-42 -31 -51 -98zM623 743h88l39 285q6 51 -37 51q-45 0 -51 -51z" />
<glyph unicode="&#xe7;" horiz-adv-x="583" d="M90 240l111 786q18 121 88 191.5t188 70.5q101 0 149 -51.5t48 -144.5q0 -41 -4 -64l-39 -274h-182l38 278q9 49 -36 49t-54 -49l-110 -792q-9 -54 37 -54q44 0 53 54l39 278h186l-39 -282q-18 -119 -85.5 -186.5t-184.5 -67.5q-118 0 -169.5 69.5t-33.5 188.5zM190 -188 l21 147h166l-25 -176q-14 -88 -112 -88h-47l8 63h41q20 0 26 25l4 29h-82z" />
<glyph unicode="&#xe8;" horiz-adv-x="575" d="M84 172q0 28 6 66l111 790q38 260 264 260q201 0 201 -194q0 -43 -4 -66l-60 -428h-274l-52 -362q-9 -52 33 -52q44 0 53 54l39 276h189l-39 -278q-38 -256 -270 -256q-197 0 -197 190zM180 1673h256l178 -330h-192zM348 743h86l39 285q6 51 -37 51t-49 -51z" />
<glyph unicode="&#xe9;" horiz-adv-x="575" d="M84 172q0 28 6 66l111 790q38 260 264 260q201 0 201 -194q0 -43 -4 -66l-60 -428h-274l-52 -362q-9 -52 33 -52q44 0 53 54l39 276h189l-39 -278q-38 -256 -270 -256q-197 0 -197 190zM338 1343l268 330h256l-332 -330h-192zM348 743h86l39 285q6 51 -37 51t-49 -51z " />
<glyph unicode="&#xea;" horiz-adv-x="575" d="M84 172q0 28 6 66l111 790q38 260 264 260q201 0 201 -194q0 -43 -4 -66l-60 -428h-274l-52 -362q-9 -52 33 -52q44 0 53 54l39 276h189l-39 -278q-38 -256 -270 -256q-197 0 -197 190zM166 1343l244 330h235l141 -330h-194l-86 224l-156 -224h-184zM348 743h86l39 285 q6 51 -37 51t-49 -51z" />
<glyph unicode="&#xeb;" horiz-adv-x="575" d="M84 172q0 28 6 66l111 790q38 260 264 260q201 0 201 -194q0 -43 -4 -66l-60 -428h-274l-52 -362q-9 -52 33 -52q44 0 53 54l39 276h189l-39 -278q-38 -256 -270 -256q-197 0 -197 190zM219 1368l37 256h201l-37 -256h-201zM348 743h86l39 285q6 51 -37 51t-49 -51z M537 1368l36 256h201l-37 -256h-200z" />
<glyph unicode="&#xec;" horiz-adv-x="403" d="M123 1673h256l178 -330h-192zM131 0l176 1268h201l-176 -1268h-201z" />
<glyph unicode="&#xed;" horiz-adv-x="417" d="M74 0l176 1268h201l-177 -1268h-200zM225 1343l269 330h256l-332 -330h-193z" />
<glyph unicode="&#xee;" horiz-adv-x="516" d="M135 1343l244 330h235l142 -330h-195l-86 224l-156 -224h-184zM158 0l176 1268h201l-177 -1268h-200z" />
<glyph unicode="&#xef;" horiz-adv-x="448" d="M125 0l176 1268h201l-176 -1268h-201zM156 1368l37 256h200l-37 -256h-200zM473 1368l37 256h201l-37 -256h-201z" />
<glyph unicode="&#xf0;" horiz-adv-x="663" d="M90 209q0 19 4 65l76 541q38 250 260 250q71 0 115 -41l22 158q16 131 8 188l-210 -207l-50 49l230 228q-32 41 -131 41l30 223q198 0 271 -96l102 98l49 -49l-114 -113q32 -82 32 -198q0 -83 -14 -175l-127 -897q-19 -141 -99.5 -216.5t-215.5 -75.5q-119 0 -178.5 58.5 t-59.5 168.5zM317 268q-9 -63 43 -63q49 0 58 63l78 549q-7 29 -41 29q-56 0 -66 -70z" />
<glyph unicode="&#xf1;" horiz-adv-x="622" d="M70 0l176 1268h170q3 -33 -2 -68q73 88 168 88q131 0 131 -162q0 -30 -6 -71l-148 -1055h-201l146 1042q6 50 -35 50q-28 0 -49 -21l-150 -1071h-200zM252 1397l24 166q49 49 136 49q51 0 129.5 -30t124.5 -30q43 0 69.5 11.5t50.5 42.5h5l-25 -168q-55 -49 -135 -49 q-51 0 -130.5 31.5t-123.5 31.5q-69 0 -121 -55h-4z" />
<glyph unicode="&#xf2;" horiz-adv-x="598" d="M86 172q0 38 4 61l111 801q39 254 278 254q209 0 209 -192q0 -42 -4 -62l-111 -801q-19 -123 -89 -187t-189 -64q-209 0 -209 190zM190 1673h256l179 -330h-193zM287 242q-6 -56 37 -56q47 0 53 56l110 784q6 55 -36 55q-48 0 -54 -55z" />
<glyph unicode="&#xf3;" horiz-adv-x="598" d="M86 172q0 38 4 61l111 801q39 254 278 254q209 0 209 -192q0 -42 -4 -62l-111 -801q-19 -123 -89 -187t-189 -64q-209 0 -209 190zM287 242q-6 -56 37 -56q47 0 53 56l110 784q6 55 -36 55q-48 0 -54 -55zM350 1343l268 330h256l-331 -330h-193z" />
<glyph unicode="&#xf4;" horiz-adv-x="598" d="M86 172q0 38 4 61l111 801q39 254 278 254q209 0 209 -192q0 -42 -4 -62l-111 -801q-19 -123 -89 -187t-189 -64q-209 0 -209 190zM178 1343l244 330h235l142 -330h-195l-86 224l-156 -224h-184zM287 242q-6 -56 37 -56q47 0 53 56l110 784q6 55 -36 55q-48 0 -54 -55z " />
<glyph unicode="&#xf5;" horiz-adv-x="598" d="M86 172q0 38 4 61l111 801q39 254 278 254q209 0 209 -192q0 -42 -4 -62l-111 -801q-19 -123 -89 -187t-189 -64q-209 0 -209 190zM240 1397l24 166q49 49 135 49q51 0 129.5 -30t124.5 -30q43 0 70 11.5t51 42.5h4l-24 -168q-55 -49 -136 -49q-51 0 -130 31.5t-123 31.5 q-69 0 -121 -55h-4zM287 242q-6 -56 37 -56q47 0 53 56l110 784q6 55 -36 55q-48 0 -54 -55z" />
<glyph unicode="&#xf6;" horiz-adv-x="598" d="M86 172q0 38 4 61l111 801q39 254 278 254q209 0 209 -192q0 -42 -4 -62l-111 -801q-19 -123 -89 -187t-189 -64q-209 0 -209 190zM231 1368l37 256h201l-37 -256h-201zM287 242q-6 -56 37 -56q47 0 53 56l110 784q6 55 -36 55q-48 0 -54 -55zM549 1368l37 256h200 l-36 -256h-201z" />
<glyph unicode="&#xf7;" horiz-adv-x="962" d="M178 776l23 166h825l-22 -166h-826zM426 356l35 256h207l-35 -256h-207zM530 1106l35 256h207l-35 -256h-207z" />
<glyph unicode="&#xf8;" horiz-adv-x="598" d="M29 -193l92 240q-35 43 -35 125q0 38 4 61l111 801q39 254 278 254q57 0 105 -20l75 192h86l-92 -241q49 -68 31 -185l-111 -801q-19 -123 -89 -187t-189 -64q-66 0 -107 16l-73 -191h-86zM287 242q-6 -56 37 -56q47 0 53 56l57 403l-143 -375zM342 631l141 373l4 22 q6 55 -36 55q-48 0 -54 -55z" />
<glyph unicode="&#xf9;" horiz-adv-x="618" d="M90 203l150 1065h200l-143 -1032q-9 -50 31 -50q28 0 49 21l147 1061h201l-176 -1268h-170q-3 34 2 68q-67 -78 -162 -78q-73 0 -107 57.5t-22 155.5zM201 1673h256l178 -330h-193z" />
<glyph unicode="&#xfa;" horiz-adv-x="618" d="M90 203l150 1065h200l-143 -1032q-9 -50 31 -50q28 0 49 21l147 1061h201l-176 -1268h-170q-3 34 2 68q-67 -78 -162 -78q-73 0 -107 57.5t-22 155.5zM360 1343l269 330h256l-332 -330h-193z" />
<glyph unicode="&#xfb;" horiz-adv-x="618" d="M90 203l150 1065h200l-143 -1032q-9 -50 31 -50q28 0 49 21l147 1061h201l-176 -1268h-170q-3 34 2 68q-67 -78 -162 -78q-73 0 -107 57.5t-22 155.5zM188 1343l244 330h236l141 -330h-195l-86 224l-155 -224h-185z" />
<glyph unicode="&#xfc;" horiz-adv-x="618" d="M90 203l150 1065h200l-143 -1032q-9 -50 31 -50q28 0 49 21l147 1061h201l-176 -1268h-170q-3 34 2 68q-67 -78 -162 -78q-73 0 -107 57.5t-22 155.5zM242 1368l37 256h200l-37 -256h-200zM559 1368l37 256h201l-37 -256h-201z" />
<glyph unicode="&#xfd;" horiz-adv-x="571" d="M-4 -287l24 199q30 -6 70 -6t63.5 36t39.5 109v1217h208q-29 -580 -53 -824q27 140 191 824h190l-340 -1241q-46 -170 -114 -246t-205 -76q-34 0 -74 8zM340 1343l268 330h256l-332 -330h-192z" />
<glyph unicode="&#xfe;" horiz-adv-x="624" d="M29 -285l276 1971h201l-62 -435q49 37 119 37q158 0 158 -166q0 -30 -6 -67l-119 -842q-17 -120 -70.5 -175.5t-146.5 -55.5q-73 0 -107 34l-43 -301h-200zM299 217q12 -27 45 -27q49 0 55 50l111 788q6 51 -41 51q-32 0 -51 -28z" />
<glyph unicode="&#xff;" horiz-adv-x="571" d="M-4 -287l24 199q30 -6 70 -6t63.5 36t39.5 109v1217h208q-29 -580 -53 -824q27 140 191 824h190l-340 -1241q-46 -170 -114 -246t-205 -76q-34 0 -74 8zM221 1368l37 256h201l-37 -256h-201zM539 1368l36 256h201l-37 -256h-200z" />
<glyph unicode="&#x152;" horiz-adv-x="890" d="M88 201q0 29 6 67l162 1149q42 287 313 287q67 0 111 -18h401l-30 -224h-240l-70 -491h152l-31 -223h-151l-74 -525h250l-31 -223h-412q-50 -18 -116 -18q-240 0 -240 219zM317 268q-9 -63 43 -63q34 0 52 6l178 1264q-18 6 -51 6q-51 0 -60 -64z" />
<glyph unicode="&#x153;" horiz-adv-x="872" d="M86 172q0 38 4 61l111 801q39 254 278 254q86 0 137 -39q61 39 146 39q201 0 201 -194q0 -37 -5 -66l-59 -428h-274l-52 -362q-9 -52 33 -52q44 0 53 54l39 276h189l-39 -278q-38 -256 -270 -256q-87 0 -136 34q-58 -34 -147 -34q-209 0 -209 190zM287 242q-6 -56 37 -56 q47 0 53 56l110 784q6 55 -36 55q-48 0 -54 -55zM645 743h86l39 285q6 51 -37 51t-49 -51z" />
<glyph unicode="&#x178;" horiz-adv-x="688" d="M227 0l101 719l-80 967h235q13 -424 13 -564v-75q50 172 198 639h217l-358 -967l-100 -719h-226zM338 1786l37 256h200l-36 -256h-201zM655 1786l37 256h201l-37 -256h-201z" />
<glyph unicode="&#x2c6;" horiz-adv-x="796" d="M276 1343l244 330h236l141 -330h-195l-86 224l-155 -224h-185z" />
<glyph unicode="&#x2dc;" horiz-adv-x="647" d="M264 1397l25 166q49 49 135 49q51 0 129.5 -30t124.5 -30q43 0 70 11.5t51 42.5h4l-25 -168q-55 -49 -135 -49q-51 0 -130.5 31.5t-123.5 31.5q-69 0 -121 -55h-4z" />
<glyph unicode="&#x2000;" horiz-adv-x="1045" />
<glyph unicode="&#x2001;" horiz-adv-x="2091" />
<glyph unicode="&#x2002;" horiz-adv-x="1045" />
<glyph unicode="&#x2003;" horiz-adv-x="2091" />
<glyph unicode="&#x2004;" horiz-adv-x="697" />
<glyph unicode="&#x2005;" horiz-adv-x="522" />
<glyph unicode="&#x2006;" horiz-adv-x="348" />
<glyph unicode="&#x2007;" horiz-adv-x="348" />
<glyph unicode="&#x2008;" horiz-adv-x="261" />
<glyph unicode="&#x2009;" horiz-adv-x="418" />
<glyph unicode="&#x200a;" horiz-adv-x="116" />
<glyph unicode="&#x2010;" d="M127 764l25 170h333l-24 -170h-334z" />
<glyph unicode="&#x2011;" d="M127 764l25 170h333l-24 -170h-334z" />
<glyph unicode="&#x2012;" d="M127 764l25 170h333l-24 -170h-334z" />
<glyph unicode="&#x2013;" horiz-adv-x="575" d="M127 764l25 170h536l-24 -170h-537z" />
<glyph unicode="&#x2014;" horiz-adv-x="913" d="M127 764l25 170h876l-24 -170h-877z" />
<glyph unicode="&#x2018;" horiz-adv-x="321" d="M242 1321l32 233q10 65 55 107.5t122 42.5h26l-12 -88h-27q-24 0 -34 -10t-15 -37l-4 -37h94l-30 -211h-207z" />
<glyph unicode="&#x2019;" horiz-adv-x="321" d="M264 1303l12 88h27q24 0 35 11t14 36l6 37h-94l29 211h207l-33 -232q-8 -65 -52.5 -108t-123.5 -43h-27z" />
<glyph unicode="&#x201a;" horiz-adv-x="344" d="M76 45l28 211h207l-32 -231q-8 -65 -54 -108.5t-123 -43.5h-26l12 88h27q24 0 35 11t14 38l6 35h-94z" />
<glyph unicode="&#x201c;" horiz-adv-x="643" d="M242 1321l32 233q10 65 55 107.5t122 42.5h26l-12 -88h-27q-24 0 -34 -10t-15 -37l-4 -37h94l-30 -211h-207zM563 1321l33 233q10 65 54.5 107.5t121.5 42.5h27l-13 -88h-26q-24 0 -34 -10t-15 -37l-4 -37h94l-31 -211h-207z" />
<glyph unicode="&#x201d;" horiz-adv-x="643" d="M264 1303l12 88h27q24 0 35 11t14 36l6 37h-94l29 211h207l-33 -232q-8 -65 -52.5 -108t-123.5 -43h-27zM586 1303l12 88h27q24 0 35 11t14 36l6 37h-94l28 211h207l-33 -232q-8 -65 -52.5 -108t-123.5 -43h-26z" />
<glyph unicode="&#x201e;" horiz-adv-x="688" d="M76 45l28 211h207l-32 -231q-8 -65 -54 -108.5t-123 -43.5h-26l12 88h27q24 0 35 11t14 38l6 35h-94zM420 45l29 211h206l-32 -231q-8 -65 -54 -108.5t-123 -43.5h-26l12 88h27q24 0 35 11t14 38l6 35h-94z" />
<glyph unicode="&#x2022;" horiz-adv-x="432" d="M193 963q11 79 61 131.5t123 52.5q72 0 108 -52.5t25 -131.5q-12 -80 -62 -132.5t-122 -52.5q-73 0 -109 52.5t-24 132.5z" />
<glyph unicode="&#x2026;" horiz-adv-x="1607" d="M57 0l35 256h207l-35 -256h-207zM700 0l35 256h207l-35 -256h-207zM1343 0l35 256h207l-35 -256h-207z" />
<glyph unicode="&#x202f;" horiz-adv-x="418" />
<glyph unicode="&#x2039;" horiz-adv-x="397" d="M111 565l32 236l363 205l-27 -187l-246 -135l207 -143l-28 -195z" />
<glyph unicode="&#x203a;" horiz-adv-x="397" d="M80 346l29 195l243 143l-205 135l27 187l301 -205l-33 -236z" />
<glyph unicode="&#x205f;" horiz-adv-x="522" />
<glyph unicode="&#x20ac;" horiz-adv-x="710" d="M96 584l47 168h74l31 215h-98l47 168h73l35 241q24 172 116.5 250t295.5 78q119 0 217 -10l-66 -221q-82 12 -174 12q-66 0 -100.5 -12t-47.5 -33.5t-18 -63.5l-34 -241h270l-49 -168h-244l-31 -215h211l-51 -168h-182l-45 -320q-9 -63 49 -63q63 0 72 63l22 162h219 l-22 -158q-42 -286 -322 -286q-248 0 -248 217q0 25 7 69l45 316h-99z" />
<glyph unicode="&#x2122;" horiz-adv-x="1007" d="M270 1583l15 103h331l-14 -103h-98l-94 -676h-136l95 676h-99zM580 907l108 779h178l-12 -543q21 106 139 543h181l-109 -779h-123l31 219q14 104 47 275q-47 -169 -141 -494h-115q-2 180 -2 363q0 92 2 131q-25 -230 -31 -275l-31 -219h-122z" />
<glyph unicode="&#xe000;" horiz-adv-x="1269" d="M0 0v1270h1270v-1270h-1270z" />
<glyph unicode="&#xfb01;" horiz-adv-x="737" d="M78 0l153 1094h-63l22 174h64l27 176q15 113 72.5 182.5t164.5 69.5q51 0 92 -13l-24 -170q-6 3 -27 3q-69 0 -80 -76l-24 -172h92l-23 -174h-92l-153 -1094h-201zM465 0l176 1268h201l-176 -1268h-201zM666 1430l34 256h201l-35 -256h-200z" />
<glyph unicode="&#xfb02;" horiz-adv-x="731" d="M78 0l153 1094h-63l22 174h64l27 176q15 113 72.5 182.5t164.5 69.5q51 0 92 -13l-24 -170q-6 3 -27 3q-69 0 -80 -76l-24 -172h92l-23 -174h-92l-153 -1094h-201zM461 0l235 1686h201l-235 -1686h-201z" />
</font>
</defs>
</svg>
