<?xml version="1.0" standalone="no"?>
<!DOCTYPE svg PUBLIC "-//W3C//DTD SVG 1.1//EN" "http://www.w3.org/Graphics/SVG/1.1/DTD/svg11.dtd" >
<svg xmlns="http://www.w3.org/2000/svg">
<metadata></metadata>
<defs>
<font id="steelfish_rgbold_italic" horiz-adv-x="575" >
<font-face units-per-em="2048" ascent="1743" descent="-305" />
<missing-glyph horiz-adv-x="278" />
<glyph unicode="&#x28;C&#x29;" horiz-adv-x="1067" d="M115 324q0 51 10 129l108 780q35 252 162.5 361.5t376.5 109.5q215 0 316.5 -81.5t101.5 -264.5q0 -50 -10 -125l-109 -780q-36 -252 -164.5 -361.5t-376.5 -109.5q-215 0 -315 80.5t-100 261.5zM242 342q0 -127 71.5 -182.5t235.5 -55.5q190 0 277 75t112 257l115 811 q8 52 8 107q0 127 -70 178t-235 51q-195 0 -280.5 -73t-113.5 -263l-114 -811q-6 -53 -6 -94zM432 489l103 721q12 92 62 138.5t134 46.5q155 0 131 -183l-26 -188h-109l27 188q6 62 -39 62q-25 0 -40 -16.5t-18 -45.5l-102 -723q-9 -59 41 -59q46 0 55 59l31 222h109 l-31 -219q-12 -92 -55 -136.5t-125 -44.5q-172 0 -148 178z" />
<glyph unicode="&#x28;R&#x29;" horiz-adv-x="1067" d="M113 324q0 51 10 129l108 780q35 252 163 361.5t376 109.5q217 0 317.5 -81t100.5 -265q0 -50 -10 -125l-109 -780q-36 -252 -164 -361.5t-377 -109.5q-214 0 -314.5 80t-100.5 262zM242 342q0 -127 71 -182.5t234 -55.5q192 0 279 75t112 257l115 811q8 49 8 103 q0 128 -70.5 179.5t-236.5 51.5q-194 0 -280 -73t-112 -261l-114 -811q-6 -53 -6 -94zM412 322l147 1060h164q97 0 136 -44.5t24 -147.5l-31 -217q-14 -118 -88 -154q10 -208 10 -497h-133q4 234 4 346v125h-47l-66 -471h-120zM614 907h43q65 0 74 68l27 190q8 49 -2 72 t-49 23h-43z" />
<glyph horiz-adv-x="2048" />
<glyph horiz-adv-x="2048" />
<glyph unicode="&#xd;" horiz-adv-x="2048" />
<glyph horiz-adv-x="278" />
<glyph unicode=" "  horiz-adv-x="278" />
<glyph unicode="&#x09;" horiz-adv-x="278" />
<glyph unicode="&#xa0;" horiz-adv-x="278" />
<glyph unicode="!" horiz-adv-x="354" d="M80 0l31 223h194l-31 -223h-194zM162 326l49 608l104 752h195l-104 -748l-125 -612h-119z" />
<glyph unicode="&#x22;" horiz-adv-x="565" d="M268 1219l2 278l27 189h170l-27 -189l-75 -278h-97zM541 1219l2 278l26 189h170l-26 -189l-76 -278h-96z" />
<glyph unicode="#" horiz-adv-x="821" d="M68 0l174 594h-119l22 162h144l67 221h-143l23 162h170l159 547h129l-164 -547h168l162 547h127l-164 -547h117l-22 -162h-142l-67 -221h137l-23 -162h-164l-174 -594h-125l177 594h-170l-177 -594h-122zM414 756h170l67 221h-170z" />
<glyph unicode="$" horiz-adv-x="587" d="M94 227q0 33 6 70l45 321h144l-45 -323q-8 -50 3.5 -74.5t45.5 -30.5l78 558l-60 71q-56 65 -78 115.5t-22 116.5q0 22 8 96l35 242q17 126 79.5 195.5t160.5 78.5l16 117h63l-16 -117q83 -8 123.5 -55.5t40.5 -139.5q0 -36 -6 -79l-39 -271h-139l41 285q9 77 -54 92 l-75 -545l63 -67q54 -57 76 -105.5t22 -118.5q0 -57 -12 -139l-31 -223q-39 -258 -241 -279l-19 -124h-63l18 126q-168 18 -168 207zM342 190q29 4 48.5 28.5t25.5 62.5l28 206q9 55 9 95q0 73 -39 125zM362 1143q-11 -83 44 -152l69 504q-64 -12 -76 -92z" />
<glyph unicode="%" horiz-adv-x="991" d="M57 0l987 1686h125l-985 -1686h-127zM201 997l82 576q19 143 161 143q138 0 119 -143l-82 -576q-19 -143 -159 -143t-121 143zM311 995q-3 -30 27 -30t33 30l82 580q3 31 -25 31q-32 0 -35 -31zM659 113l82 575q19 143 162 143q138 0 119 -143l-82 -575 q-19 -144 -160 -144q-140 0 -121 144zM770 111q-3 -31 27 -31q29 0 32 31l82 579q3 31 -24 31q-32 0 -35 -31z" />
<glyph unicode="&#x26;" horiz-adv-x="778" d="M86 209q0 48 10 123l19 121q19 134 61 225.5t156 218.5l-25 115q-26 118 -26 188q0 37 12 127l12 100q22 148 85 211.5t185 63.5q189 0 189 -201q0 -44 -4 -69l-19 -125q-15 -107 -67 -201.5t-166 -233.5l106 -497q40 88 52 192l8 58h145l-8 -66q-30 -229 -141 -379 q10 -10 30 -10q43 0 72 25l-27 -181q-39 -22 -104 -22q-70 0 -104 49q-68 -59 -203 -59t-191.5 55t-56.5 172zM276 266q0 -55 23.5 -81.5t75.5 -26.5q72 0 112 32l-108 515q-34 -50 -50 -99.5t-30 -144.5l-16 -125q-7 -47 -7 -70zM446 1225q0 -57 11 -119l10 -57 q105 127 127 288l8 60q9 61 -1.5 91t-47.5 30q-71 0 -86 -99l-10 -65q-11 -86 -11 -129z" />
<glyph unicode="'" horiz-adv-x="292" d="M268 1219l2 278l27 189h170l-27 -189l-75 -278h-97z" />
<glyph unicode="(" horiz-adv-x="524" d="M168 94q0 26 8 96l182 1305q26 184 115.5 269t249.5 85h18l-18 -137h-18q-92 0 -144 -53.5t-67 -163.5l-183 -1305q-6 -34 -6 -63q0 -154 156 -154h18l-20 -137h-19q-136 0 -204 63t-68 195z" />
<glyph unicode=")" horiz-adv-x="524" d="M125 -164l20 137h19q92 0 143 53t68 164l182 1305q4 23 4 61q0 80 -37.5 118t-115.5 38h-19l19 137h18q138 0 206 -62.5t68 -195.5q0 -26 -8 -96l-182 -1305q-26 -184 -116.5 -269t-250.5 -85h-18z" />
<glyph unicode="*" horiz-adv-x="667" d="M221 1421l35 109l225 -86l-14 242h117l-15 -242l226 90l34 -111l-233 -63l154 -186l-93 -68l-133 205l-129 -205l-92 68l152 186z" />
<glyph unicode="+" horiz-adv-x="954" d="M184 788l19 142h334l47 334h141l-47 -334h336l-19 -142h-336l-47 -335h-141l47 335h-334z" />
<glyph unicode="," horiz-adv-x="299" d="M66 -125l10 78h18q22 0 32 10t13 33l8 49h-79l28 211h176l-34 -248q-8 -60 -46 -96.5t-106 -36.5h-20z" />
<glyph unicode="-" horiz-adv-x="372" d="M133 776l21 146h327l-20 -146h-328z" />
<glyph unicode="." horiz-adv-x="296" d="M61 0l35 256h176l-34 -256h-177z" />
<glyph unicode="/" horiz-adv-x="495" d="M10 0l572 1686h139l-574 -1686h-137z" />
<glyph unicode="0" horiz-adv-x="675" d="M92 199q0 31 6 69l162 1149q42 287 315 287q244 0 244 -217q0 -33 -6 -70l-162 -1149q-42 -286 -317 -286q-242 0 -242 217zM287 264q-15 -96 73 -96q90 0 105 96l162 1157q12 97 -76 97q-90 0 -102 -97z" />
<glyph unicode="1" horiz-adv-x="389" d="M125 0l192 1376h-92l27 185h43q35 0 53.5 19t24.5 60l6 46h168l-236 -1686h-186z" />
<glyph unicode="2" horiz-adv-x="636" d="M51 0l43 307q21 155 63 247.5t162 233.5q144 172 188.5 250.5t61.5 194.5l25 180q15 100 -66 100q-77 0 -92 -100l-41 -295h-188l41 293q23 154 97 223.5t210 69.5q118 0 177 -53t59 -164q0 -29 -7 -76l-26 -197q-18 -123 -76 -233.5t-166 -237.5q-93 -108 -138.5 -177 t-63.5 -122.5t-29 -136.5l-19 -119h346l-24 -188h-537z" />
<glyph unicode="3" horiz-adv-x="638" d="M84 205q0 21 4 61l47 332h191l-47 -330q-12 -98 63 -98q84 0 96 98l58 404q6 51 -9 74.5t-61 23.5h-84l27 178h92q41 0 59.5 24t24.5 75l53 368q6 52 -9 75t-59 23q-42 0 -63 -23t-27 -75l-43 -299h-186l41 297q23 153 96 222t209 69q118 0 172.5 -49.5t54.5 -157.5 q0 -39 -6 -86l-51 -373q-10 -70 -42.5 -112.5t-92.5 -67.5q108 -31 88 -182l-57 -408q-19 -133 -97 -209.5t-211 -76.5q-114 0 -172.5 59.5t-58.5 163.5z" />
<glyph unicode="4" horiz-adv-x="657" d="M63 336l23 164l526 1186h179l-164 -1172h82l-25 -178h-82l-47 -336h-176l47 336h-363zM256 514h195q48 352 106 688q-167 -389 -301 -688z" />
<glyph unicode="5" horiz-adv-x="649" d="M94 195q0 31 6 69l50 354h184l-49 -352q-15 -96 67 -96q79 0 94 98l76 545q6 42 -12.5 65t-60.5 23q-82 0 -111 -90l-162 6l141 869h500l-26 -191h-328l-88 -494q61 68 172 68q164 0 164 -180q0 -37 -6 -80l-76 -545q-20 -143 -94.5 -212.5t-208.5 -69.5q-232 0 -232 213 z" />
<glyph unicode="6" horiz-adv-x="657" d="M92 205q0 17 4 63l162 1149q19 136 97.5 211.5t211.5 75.5q114 0 170 -57t56 -162q0 -37 -5 -68l-40 -291h-183l41 291q13 96 -65 96q-38 0 -62 -25t-30 -71l-60 -426q60 68 156 68q89 0 130.5 -43t41.5 -137q0 -37 -6 -84l-74 -527q-19 -136 -98.5 -211t-212.5 -75 q-117 0 -175.5 57.5t-58.5 165.5zM287 268q-6 -50 7.5 -74t57.5 -24t66 24.5t28 73.5l66 463q6 38 6 66q0 40 -15 60t-50 20q-70 0 -91 -68z" />
<glyph unicode="7" horiz-adv-x="593" d="M127 0q37 267 94 509.5t110.5 400.5t112.5 292.5t93.5 195t60.5 97.5h-362l26 191h541l-25 -177q-174 -294 -283.5 -659t-179.5 -850h-188z" />
<glyph unicode="8" horiz-adv-x="647" d="M86 195q0 31 6 69l58 408q19 154 139 200q-91 51 -72 187l51 356q40 289 291 289q219 0 219 -215q0 -33 -6 -74l-51 -356q-19 -136 -123 -187q106 -45 86 -200l-57 -408q-41 -282 -310 -282q-231 0 -231 213zM279 266q-15 -96 65 -96q81 0 96 96l60 420q10 86 -72 86 q-80 0 -90 -86zM387 1034q-12 -86 68 -86q41 0 62.5 20.5t27.5 65.5l55 381q6 54 -8.5 76t-59.5 22q-44 0 -64 -22.5t-26 -75.5z" />
<glyph unicode="9" horiz-adv-x="655" d="M92 209q0 19 4 59l41 291h185l-41 -291q-12 -98 65 -98q40 0 64 25.5t30 72.5l64 453q-56 -68 -156 -68q-88 0 -129 43t-41 138q0 38 6 84l72 499q19 138 96 212.5t209 74.5q117 0 176.5 -57t59.5 -164q0 -18 -4 -64l-162 -1151q-19 -136 -99 -211t-213 -75 q-110 0 -168.5 59.5t-58.5 167.5zM375 936q-12 -94 65 -94q35 0 58.5 19t31.5 50l72 506q6 51 -10 73.5t-57 22.5q-42 0 -64 -22t-29 -74z" />
<glyph unicode=":" horiz-adv-x="296" d="M61 0l35 256h176l-34 -256h-177zM166 750l35 254h176l-35 -254h-176z" />
<glyph unicode=";" horiz-adv-x="299" d="M66 -125l10 78h18q22 0 32 10t13 33l8 49h-79l28 211h176l-34 -248q-8 -60 -46 -96.5t-106 -36.5h-20zM166 750l35 254h176l-35 -254h-176z" />
<glyph unicode="&#x3c;" horiz-adv-x="954" d="M180 772l25 172l846 248l-19 -141l-694 -189l639 -198l-21 -142z" />
<glyph unicode="=" horiz-adv-x="954" d="M156 596l20 143h811l-20 -143h-811zM211 979l20 143h811l-20 -143h-811z" />
<glyph unicode="&#x3e;" horiz-adv-x="954" d="M145 522l21 142l696 198l-641 189l19 141l776 -248l-25 -172z" />
<glyph unicode="?" horiz-adv-x="614" d="M195 0l34 256h177l-35 -256h-176zM203 1118l41 295q22 150 94.5 220.5t206.5 70.5q117 0 173 -52t56 -161q0 -37 -6 -80l-25 -184q-17 -120 -52 -198t-99 -142q-80 -80 -100.5 -123t-34.5 -150l-33 -231h-176l31 227q17 122 48.5 193.5t98.5 138.5q71 71 91.5 116 t39.5 169l27 188q12 98 -66 98q-80 0 -92 -96l-43 -299h-180z" />
<glyph unicode="@" horiz-adv-x="1064" d="M88 166q0 55 10 133l101 715q35 251 162.5 361t375.5 110q207 0 305.5 -79.5t98.5 -248.5q0 -30 -8 -104l-89 -621q-15 -104 -77.5 -164.5t-147.5 -60.5q-56 0 -96.5 22t-52.5 58q-13 -29 -49 -50.5t-86 -21.5q-165 0 -138 191l64 446q16 117 64 163t128 46 q40 0 67.5 -20t35.5 -54q7 42 14 64h92l-94 -660q4 -29 16.5 -45t44.5 -16q76 0 89 96l88 631q20 133 -50 206.5t-239 73.5q-177 0 -263.5 -80t-109.5 -243l-100 -719q-8 -70 -8 -94q0 -140 78 -199t235 -59q121 0 198 21.5t108.5 54.5t39.5 81q3 24 2 29h123q3 -17 0 -41 q-37 -299 -516 -299q-203 0 -309.5 87t-106.5 290zM524 422q-6 -47 8.5 -67.5t53.5 -20.5q47 0 69 49l68 483q-3 31 -15 45.5t-38 14.5q-76 0 -84 -80z" />
<glyph unicode="A" horiz-adv-x="690" d="M20 0l455 1686h219l-28 -1686h-191l4 260h-207q-36 -127 -67 -260h-185zM315 434h168q19 584 27 766q-102 -430 -195 -766z" />
<glyph unicode="B" horiz-adv-x="669" d="M74 0l235 1686h273q115 0 167 -50t52 -157q0 -39 -6 -86l-47 -342q-11 -70 -41.5 -117t-75.5 -62q47 -11 72 -56q17 -31 18 -77q0 -20 -4 -43l-58 -411q-22 -148 -98.5 -216.5t-214.5 -68.5h-272zM287 188h84q84 0 96 99l55 393q3 19 3 34q1 28 -9 42q-14 22 -59 22h-86z M393 944h86q40 0 61 21t27 67l51 367q2 17 2 31q0 28 -10 43q-14 22 -55 22h-84z" />
<glyph unicode="C" horiz-adv-x="634" d="M94 199q0 42 4 67l160 1147q43 291 313 291q217 0 217 -211q0 -35 -6 -76l-43 -299h-172l43 299q2 15 2 27q0 30 -10 46q-14 22 -57 23q-80 0 -92 -96l-162 -1149q-2 -15 -2 -29q0 -69 67 -69q41 0 63 24t30 74l49 350h172l-49 -348q-20 -148 -90.5 -218t-200.5 -70 q-236 0 -236 217z" />
<glyph unicode="D" horiz-adv-x="671" d="M74 0l235 1686h266q116 0 176 -59t60 -165q0 -30 -6 -65l-156 -1110q-41 -287 -309 -287h-266zM287 188h78q83 0 96 99l155 1110q3 16 3 29q0 69 -70 69h-78z" />
<glyph unicode="E" d="M74 0l235 1686h455l-27 -191h-266l-76 -541h178l-26 -190h-178l-82 -576h276l-24 -188h-465z" />
<glyph unicode="F" horiz-adv-x="555" d="M74 0l235 1686h465l-26 -191h-277l-78 -549h180l-26 -190h-180l-105 -756h-188z" />
<glyph unicode="G" horiz-adv-x="663" d="M92 197q0 31 6 71l162 1147q19 140 97.5 214.5t211.5 74.5q226 0 226 -217q0 -47 -4 -72l-43 -297h-170l43 299q1 11 1 21q0 75 -79 75q-82 0 -94 -96l-162 -1149q-2 -15 -2 -27q0 -71 67 -71q86 0 105 86l51 362h-100l24 181h283l-113 -809h-22l-52 80q-68 -88 -215 -88 q-102 0 -161.5 51.5t-59.5 163.5z" />
<glyph unicode="H" horiz-adv-x="684" d="M74 0l235 1686h189l-103 -734h160l102 734h189l-236 -1686h-188l106 764h-159l-107 -764h-188z" />
<glyph unicode="I" horiz-adv-x="344" d="M78 0l235 1686h189l-236 -1686h-188z" />
<glyph unicode="J" horiz-adv-x="444" d="M18 0l25 188q42 -10 92 -10q77 0 92 103l197 1405h190l-196 -1405q-42 -293 -309 -293q-51 0 -91 12z" />
<glyph unicode="K" horiz-adv-x="718" d="M72 0l235 1686h191l-49 -349q-33 -236 -56 -368q240 523 332 717h203l-377 -760l162 -926h-217q-21 123 -42 259t-45.5 302.5t-37.5 253.5q-10 -99 -60 -461l-49 -354h-190z" />
<glyph unicode="L" horiz-adv-x="557" d="M74 0l235 1686h189l-211 -1498h276l-24 -188h-465z" />
<glyph unicode="M" horiz-adv-x="931" d="M68 0l235 1686h252q-23 -652 -33 -1246q17 65 63 238.5t109.5 422t145.5 585.5h258l-236 -1686h-174l68 492q55 395 100 659q-13 -49 -115.5 -424t-195.5 -727h-164l12 1151q-63 -508 -84 -659l-67 -492h-174z" />
<glyph unicode="N" horiz-adv-x="727" d="M68 0l235 1686h221q23 -612 51 -1145q29 246 76 571l80 574h162l-236 -1686h-184q-85 1047 -90 1130q-37 -297 -94 -694l-60 -436h-161z" />
<glyph unicode="O" horiz-adv-x="661" d="M92 199q0 31 6 69l162 1149q42 287 307 287q118 0 178 -55.5t60 -163.5q0 -31 -6 -68l-162 -1149q-42 -286 -311 -286q-116 0 -175 55.5t-59 161.5zM287 268q-2 -15 -2 -29q0 -69 67 -69q82 0 97 98l161 1149q2 12 2 23q0 73 -71 73q-80 0 -92 -96z" />
<glyph unicode="P" horiz-adv-x="663" d="M74 0l235 1686h266q129 0 192.5 -55.5t63.5 -170.5q0 -36 -6 -80l-39 -276q-22 -157 -102.5 -230t-230.5 -73h-80l-111 -801h-188zM399 985h80q54 0 83 27t38 86l39 284q3 17 3 32q0 36 -16 54q-22 28 -77 27h-78z" />
<glyph unicode="Q" horiz-adv-x="661" d="M94 227q0 33 6 70l158 1120q42 287 309 287q118 0 178 -55.5t60 -163.5q0 -31 -6 -68l-158 -1120q-38 -259 -258 -285q10 -59 100 -59q66 0 115 43l-20 -148q-52 -45 -146 -45q-99 0 -143 63q-34 48 -34 111q0 19 3 39q-164 30 -164 211zM289 287q-2 -13 -2 -24 q0 -73 69 -73q81 0 93 97l159 1130q2 13 2 24q0 72 -69 72q-80 0 -92 -96z" />
<glyph unicode="R" horiz-adv-x="679" d="M72 0l235 1686h262q131 0 195.5 -52.5t64.5 -169.5q0 -36 -6 -82l-47 -342q-13 -95 -48 -153t-97 -90q9 -210 14 -797h-207q11 542 11 588q0 28 -1.5 85t-1.5 85h-77l-107 -758h-190zM391 930h74q54 0 82.5 26t36.5 82l43 305q6 37 6 66q0 44 -20.5 65t-69.5 21h-72z" />
<glyph unicode="S" horiz-adv-x="638" d="M82 195q0 42 4 65l51 358h182l-51 -358q-1 -10 -1 -19q0 -71 69 -71q84 0 96 90l35 240q4 28 4 50q0 24 -4 42q-8 36 -37 78q-20 31 -88 127.5t-106 163.5q-29 51 -29 122q0 25 8 91l35 251q40 279 307 279q119 0 173 -49t54 -152q0 -35 -6 -78l-43 -307h-176l43 305 q2 13 2 25q0 65 -69 65q-41 0 -63 -21t-30 -67l-34 -249q-2 -19 -2 -36q0 -47 18 -79q24 -37 94 -135.5t103 -155.5q43 -74 43 -164q0 -46 -9 -104l-34 -242q-39 -278 -306 -278q-233 0 -233 213z" />
<glyph unicode="T" horiz-adv-x="581" d="M197 0l209 1495h-177l27 191h541l-27 -191h-176l-209 -1495h-188z" />
<glyph unicode="U" horiz-adv-x="671" d="M98 199q0 31 6 69l199 1418h189l-199 -1418q-2 -15 -2 -29q0 -69 67 -69q80 0 95 98l198 1418h189l-199 -1418q-40 -286 -309 -286q-234 0 -234 217z" />
<glyph unicode="V" horiz-adv-x="696" d="M215 0l43 1686h197q-12 -222 -25 -546t-22.5 -534.5t-16.5 -277.5q13 63 67 279.5t131 529t132 549.5h188l-442 -1686h-252z" />
<glyph unicode="W" horiz-adv-x="1089" d="M197 0l61 1686h197q-17 -251 -33 -549.5t-25.5 -480t-13.5 -220.5q9 39 54 220.5t119 480t136 549.5h176q-11 -221 -26 -543.5t-23 -493t-12 -213.5q7 39 51.5 220t116.5 480t129 550h199l-437 -1686h-223q48 1074 59 1167q-7 -36 -44.5 -192.5t-111.5 -461t-124 -513.5 h-225z" />
<glyph unicode="X" horiz-adv-x="700" d="M8 0l357 901l-84 785h202q2 -85 9.5 -217t12.5 -226q4 -67 4 -102q0 -14 -1 -23q8 32 80 242.5t106 325.5h197l-307 -779l108 -907h-203q-6 113 -18 274.5t-20.5 276t-8.5 151.5q-9 -38 -48.5 -150.5t-98 -277t-94.5 -274.5h-193z" />
<glyph unicode="Y" horiz-adv-x="684" d="M242 0l102 737l-92 949h199q3 -118 13 -271t17 -259q6 -92 6 -127v-9q7 23 94 265t138 401h184l-366 -949l-103 -737h-192z" />
<glyph unicode="Z" horiz-adv-x="632" d="M49 0l27 193l532 1308h-334l25 185h522l-22 -170l-527 -1323h340l-26 -193h-537z" />
<glyph unicode="[" horiz-adv-x="512" d="M125 -164l283 2013h321l-18 -137h-187l-243 -1739h186l-21 -137h-321z" />
<glyph unicode="\" horiz-adv-x="495" d="M246 1686h139l100 -1686h-137z" />
<glyph unicode="]" horiz-adv-x="512" d="M125 -164l20 137h187l243 1739h-186l19 137h321l-283 -2013h-321z" />
<glyph unicode="^" horiz-adv-x="653" d="M223 1077l254 609h172l80 -609h-135l-47 461l-189 -461h-135z" />
<glyph unicode="_" horiz-adv-x="620" d="M-33 -221l19 127h622l-18 -127h-623z" />
<glyph unicode="`" horiz-adv-x="591" d="M307 1673h217l183 -330h-164z" />
<glyph unicode="a" horiz-adv-x="583" d="M68 182l26 187q7 51 22 94t32 74.5t46 60t52.5 47t64 40t67.5 33.5t75 32l41 286q1 9 1 18q0 62 -59 62q-41 0 -58 -19.5t-22 -60.5l-39 -266h-149l39 268q35 250 258 250q197 0 197 -188q0 -4 -5 -62l-131 -929q-6 -49 -6 -80q0 -18 2 -29h-155q-3 14 -3 31.5t3 38.5 q-62 -88 -154 -88q-149 0 -149 148q0 24 4 52zM242 225q-2 -11 -2 -21q0 -57 61 -57q51 0 74 56l59 409q-43 -14 -72.5 -33.5t-46 -38t-28 -52.5t-16 -58t-11.5 -74z" />
<glyph unicode="b" horiz-adv-x="622" d="M74 0l235 1686h170l-63 -457q56 59 141 59q79 0 118.5 -39.5t39.5 -124.5q0 -28 -6 -69l-113 -803q-19 -134 -80 -199t-172 -65q-104 0 -147 94q-6 -23 -37 -82h-86zM274 227q15 -57 70 -57q71 0 82 80l111 786q1 9 1 16q0 58 -61 58q-59 0 -86 -55z" />
<glyph unicode="c" horiz-adv-x="581" d="M90 180q0 20 4 60l111 786q18 121 87 191.5t185 70.5q98 0 145.5 -51.5t47.5 -144.5q0 -41 -4 -64l-39 -274h-156l39 278q2 13 2 23q0 57 -59 57q-33 0 -54.5 -21.5t-27.5 -60.5l-111 -790q-2 -12 -2 -23q0 -61 59 -61q70 0 82 84l39 278h160l-39 -282 q-18 -119 -84.5 -186.5t-181.5 -67.5q-102 0 -152.5 52t-50.5 146z" />
<glyph unicode="d" horiz-adv-x="622" d="M88 162q0 40 4 65l117 828q17 122 69.5 177.5t147.5 55.5q82 0 125 -59l63 457h170l-235 -1686h-143q-1 10 -1 22q0 27 5 60q-27 -48 -67.5 -71t-104.5 -23q-150 0 -150 174zM266 250q-2 -13 -2 -23q0 -25 10 -38q14 -19 50 -19q26 0 49.5 15t36.5 42l116 832 q-12 55 -69 55q-71 0 -80 -76z" />
<glyph unicode="e" d="M88 170q0 30 6 68l111 790q38 260 260 260q197 0 197 -194q0 -37 -5 -66l-59 -418h-295l-51 -372q-2 -13 -2 -24q0 -58 55 -58q70 0 82 84l39 276h160l-39 -278q-38 -256 -266 -256q-193 0 -193 188zM322 733h135l41 295q2 12 2 22q0 60 -60 60q-66 0 -78 -82z" />
<glyph unicode="f" horiz-adv-x="391" d="M80 0l156 1118h-62l21 150h61l27 176q34 252 233 252q51 0 92 -13l-20 -145q-10 4 -41 4q-82 0 -96 -102l-25 -172h119l-21 -150h-118l-156 -1118h-170z" />
<glyph unicode="g" horiz-adv-x="622" d="M63 -127q0 3 5 61l8 52h153l-10 -60q-1 -9 -1 -16q0 -66 69 -66q77 0 86 82l28 193q-60 -60 -149 -60q-79 0 -118.5 39t-39.5 123q0 33 6 70l107 749q17 119 71 179.5t140 60.5q58 0 93 -23.5t54 -70.5q4 26 17 82h143l-186 -1334q-36 -239 -269 -239q-110 0 -158.5 45 t-48.5 133zM270 299q-1 -10 -1 -19q0 -25 11 -38q14 -19 52 -19q55 0 92 56l106 761q-18 56 -75 56q-73 0 -82 -74z" />
<glyph unicode="h" horiz-adv-x="620" d="M74 0l235 1686h170l-65 -469q68 71 161 71q134 0 134 -158q0 -24 -7 -75l-147 -1055h-172l145 1044q6 40 -6.5 58t-44.5 18q-56 0 -84 -49l-149 -1071h-170z" />
<glyph unicode="i" horiz-adv-x="323" d="M78 0l176 1268h170l-176 -1268h-170zM279 1430l34 256h170l-34 -256h-170z" />
<glyph unicode="j" horiz-adv-x="352" d="M-88 -287l22 170q27 -8 74 -8q77 0 92 98l181 1295h170l-181 -1295q-20 -138 -90.5 -203t-193.5 -65q-28 0 -74 8zM305 1430l35 256h170l-35 -256h-170z" />
<glyph unicode="k" horiz-adv-x="614" d="M72 0l235 1686h168l-92 -664l-43 -293q104 233 256 539h176l-276 -553l106 -715h-186q-78 536 -88 643l-47 -340l-41 -303h-168z" />
<glyph unicode="l" horiz-adv-x="317" d="M74 0l235 1686h170l-235 -1686h-170z" />
<glyph unicode="m" horiz-adv-x="905" d="M74 0l176 1268h143q1 -10 1 -21q0 -26 -5 -59q34 47 80.5 73.5t95.5 26.5q104 0 119 -94q71 94 180 94q127 0 127 -164q0 -32 -6 -73l-147 -1051h-170l145 1049q2 12 2 23q0 48 -47 48q-46 0 -78 -49l-149 -1071h-170l145 1049q2 12 2 22q0 49 -49 49q-48 0 -76 -49 l-149 -1071h-170z" />
<glyph unicode="n" horiz-adv-x="620" d="M74 0l176 1268h143q1 -9 1 -20q0 -26 -5 -62q73 102 184 102q136 0 136 -160q0 -26 -7 -73l-147 -1055h-172l145 1044q6 40 -6.5 58t-44.5 18q-56 0 -84 -49l-149 -1071h-170z" />
<glyph unicode="o" horiz-adv-x="595" d="M90 170q0 40 4 63l111 801q39 254 274 254q101 0 153 -49t52 -143q0 -42 -4 -62l-111 -801q-19 -122 -88.5 -186.5t-185.5 -64.5q-205 0 -205 188zM260 238q-2 -13 -2 -23q0 -25 10 -39q14 -20 51.5 -20t56.5 20.5t25 63.5l111 788q2 14 2 25q0 24 -8 38q-12 21 -51 21 q-71 0 -84 -84z" />
<glyph unicode="p" horiz-adv-x="622" d="M33 -285l217 1553h143q1 -10 1 -22q0 -26 -5 -60q27 48 67.5 71t104.5 23q150 0 150 -174q0 -41 -4 -66l-117 -827q-17 -122 -69.5 -176.5t-147.5 -54.5q-83 0 -125 57l-45 -324h-170zM272 209q6 -27 25 -41t45 -14q72 0 80 75l110 789q2 14 2 25q0 25 -10 37 q-13 18 -49 18q-56 0 -86 -56z" />
<glyph unicode="q" horiz-adv-x="622" d="M84 143q0 29 6 70l117 827q17 119 71 179.5t140 60.5q117 0 147 -94q2 14 17 82h143l-217 -1553h-170l45 324q-54 -57 -141 -57q-79 0 -118.5 39t-39.5 122zM262 229q-1 -9 -1 -16q0 -27 11 -41q14 -18 50 -18q56 0 86 55l116 838q-12 55 -69 55q-71 0 -80 -80z" />
<glyph unicode="r" horiz-adv-x="423" d="M74 0l176 1268h143q1 -10 1 -21q0 -26 -5 -57q60 92 152 92q19 0 39 -8l-27 -191q-21 15 -64 15q-67 0 -100 -56l-145 -1042h-170z" />
<glyph unicode="s" horiz-adv-x="571" d="M78 162q0 38 4 61l29 201h155l-28 -197q-4 -38 12 -57.5t49 -19.5q66 0 78 77l20 138q5 38 1 61.5t-23 54.5q-27 43 -85.5 117.5t-84.5 114.5q-33 53 -33 127q0 38 6 78l19 120q18 132 84 191t180 59q109 0 155 -40.5t46 -129.5q0 -29 -7 -80l-28 -200h-156l29 200 q4 37 -12 57.5t-48 20.5q-66 0 -75 -78l-21 -139q-2 -15 -2 -29q0 -41 20 -73q26 -41 83.5 -110t80.5 -105q45 -67 45 -152q0 -20 -8 -90l-18 -125q-17 -122 -84.5 -177.5t-190.5 -55.5q-192 0 -192 180z" />
<glyph unicode="t" horiz-adv-x="391" d="M106 182q0 4 5 62l122 874h-61l21 150h61l57 401h172l-57 -401h117l-21 -150h-116l-123 -872q-2 -16 -2 -31q0 -86 79 -86q19 0 27 2l-18 -141q-24 -8 -66 -8q-98 0 -147.5 51.5t-49.5 148.5z" />
<glyph unicode="u" horiz-adv-x="616" d="M92 145q0 40 4 60l148 1063h170l-146 -1037q-5 -40 6.5 -57.5t42.5 -17.5q52 0 84 49l148 1063h172l-176 -1268h-146q-1 10 -1 21q0 26 5 59q-71 -92 -178 -92q-64 0 -98.5 41t-34.5 116z" />
<glyph unicode="v" horiz-adv-x="569" d="M195 0v1268h172q-26 -825 -27 -840l219 840h164l-358 -1268h-170z" />
<glyph unicode="w" horiz-adv-x="864" d="M139 0l62 1268h157l-63 -934l231 934h158l-43 -934l215 934h158l-307 -1268h-201l43 879l-211 -879h-199z" />
<glyph unicode="x" horiz-adv-x="585" d="M12 0l262 678l-61 590h178q19 -269 19 -451q44 167 143 451h170l-225 -588l75 -680h-176q-30 478 -30 561q-49 -171 -185 -561h-170z" />
<glyph unicode="y" horiz-adv-x="569" d="M-2 -285l22 170q24 -8 68 -8q40 0 63 33t42 102l8 27l-6 1229h178q-11 -409 -37 -889q100 417 223 889h164l-342 -1221q-19 -62 -33 -101t-34 -82.5t-41.5 -69t-50.5 -48t-66.5 -32t-85.5 -9.5q-27 0 -72 10z" />
<glyph unicode="z" horiz-adv-x="526" d="M49 0l23 162l399 938h-264l22 168h426l-20 -158l-393 -936h258l-23 -174h-428z" />
<glyph unicode="{" horiz-adv-x="559" d="M147 844l185 194q20 20 29.5 40.5t15.5 58.5l59 430q40 282 330 282h16l-18 -137h-14q-83 0 -126 -35t-53 -116l-59 -416q-9 -63 -27 -101.5t-57 -80.5l-115 -119l80 -121q39 -56 39 -121q0 -26 -6 -63l-57 -414q-10 -81 22.5 -116.5t114.5 -35.5h14l-20 -137h-17 q-256 0 -256 213q0 30 6 68l60 432q5 40 1.5 58t-18.5 40z" />
<glyph unicode="|" horiz-adv-x="413" d="M113 -164l282 2013h137l-282 -2013h-137z" />
<glyph unicode="}" horiz-adv-x="559" d="M6 -164l21 137h14q83 0 125.5 35.5t52.5 116.5l57 414q9 63 27.5 103t58.5 81l113 121l-78 119q-41 55 -41 118q0 27 6 64l60 416q10 81 -22 116t-115 35h-15l19 137h16q256 0 256 -219q0 -40 -4 -63l-59 -430q-10 -61 16 -99l127 -194l-182 -197q-21 -21 -30 -40.5 t-15 -57.5l-60 -432q-43 -281 -331 -281h-17z" />
<glyph unicode="~" horiz-adv-x="956" d="M176 733l23 168q89 78 217 78q67 0 134.5 -23.5t126.5 -47t107 -23.5q69 0 124.5 23t115.5 79l-23 -168q-107 -76 -241 -76q-68 0 -184 47.5t-175 47.5q-123 0 -225 -105z" />
<glyph unicode="&#xa1;" horiz-adv-x="354" d="M80 0l104 748l125 612h119l-49 -608l-105 -752h-194zM285 1462l30 224h195l-31 -224h-194z" />
<glyph unicode="&#xa2;" horiz-adv-x="577" d="M123 440l108 781q15 111 77.5 180t164.5 78l29 207h63l-28 -207q159 -17 159 -193q0 -40 -4 -63l-39 -279h-137l41 281q3 32 -10.5 53.5t-40.5 24.5l-133 -945q61 7 73 82l37 271h142l-39 -275q-14 -109 -73 -176t-159 -76l-24 -184h-64l25 182q-98 7 -141 77t-27 181z M272 440q-6 -37 8 -57.5t44 -22.5l133 943q-32 -4 -51.5 -25.5t-22.5 -52.5z" />
<glyph unicode="&#xa3;" horiz-adv-x="587" d="M35 -18l24 174q46 52 111 61q39 167 72 399l45 328h-111l21 143h110l41 293q22 156 99 240t200 84q71 0 103 -14l-23 -174q-38 14 -68 14q-124 0 -147 -148l-41 -295h195l-21 -143h-194l-45 -330q-33 -233 -87 -430q9 -3 31.5 -14.5t43.5 -18t44 -6.5q80 0 131 62h9 l-23 -162q-52 -61 -145 -61q-52 0 -123.5 37.5t-104.5 37.5q-75 0 -139 -77h-8z" />
<glyph unicode="&#xa4;" horiz-adv-x="1005" d="M90 428q7 7 41.5 36.5t71.5 61t41 35.5q-63 106 -45 240q17 127 112 239l-114 129l114 105l111 -137q113 80 250 80q135 0 229 -82l146 139l88 -105l-152 -129q63 -105 45 -239t-113 -240l117 -133l-117 -102l-110 139q-126 -78 -250 -78q-132 0 -227 78l-152 -139z M354 801q-15 -108 50.5 -183t173.5 -75t193.5 75t100.5 183q15 107 -50.5 182.5t-172.5 75.5t-193.5 -75.5t-101.5 -182.5z" />
<glyph unicode="&#xa5;" horiz-adv-x="700" d="M57 178l21 148h223l25 174h-224l21 147h223l12 84l-100 955h201l37 -666l229 666h186l-374 -955l-13 -84h224l-21 -147h-223l-25 -174h223l-20 -148h-223l-25 -178h-178l25 178h-224z" />
<glyph unicode="&#xa6;" horiz-adv-x="413" d="M113 -164l116 826h138l-117 -826h-137zM281 1024l114 825h137l-114 -825h-137z" />
<glyph unicode="&#xa7;" horiz-adv-x="591" d="M45 -113q0 33 6 70l29 207h153l-28 -197q-6 -44 6 -65t49 -21q71 0 82 76l20 156q10 63 -14 100q-24 39 -83.5 122t-86.5 130q-37 64 -37 143q0 40 6 90l21 144q25 166 141 211q-36 55 -51.5 94.5t-15.5 91.5q0 29 6 66l22 157q17 123 83 182.5t184 59.5q103 0 149.5 -42 t46.5 -132q0 -43 -4 -68l-29 -207h-153l26 197q6 44 -6 65t-49 21t-55.5 -18t-24.5 -58l-22 -155q-10 -64 14 -101q24 -39 83.5 -122t86.5 -130q39 -68 39 -143q0 -24 -8 -90l-21 -143q-21 -167 -139 -211q38 -65 52 -101t14 -84q0 -20 -7 -67l-20 -158 q-19 -123 -84.5 -182.5t-183.5 -59.5q-103 0 -150 41.5t-47 130.5zM312.5 622q6.5 -32 29.5 -69l37 -55q33 4 47.5 23t19.5 57l21 141q12 86 -31 147l-37 54q-33 -3 -47.5 -22t-19.5 -56l-19 -142q-7 -46 -0.5 -78z" />
<glyph unicode="&#xa8;" horiz-adv-x="628" d="M264 1368l37 256h170l-37 -256h-170zM575 1368l37 256h172l-36 -256h-173z" />
<glyph unicode="&#xaa;" horiz-adv-x="444" d="M184 715l15 102q6 45 19 76.5t41 55t47.5 34.5t66.5 34q7 3 10 5l23 164q3 26 -21 26q-26 0 -29 -26l-20 -148h-96l20 148q18 137 141 137q129 0 111 -137l-72 -512q-7 -47 -2 -60h-100q-4 9 0 35q-33 -45 -78 -45q-93 0 -76 111zM295 735q-3 -22 20 -22q17 0 27 16 l29 205q-29 -15 -42 -30t-16 -44z" />
<glyph unicode="&#xab;" horiz-adv-x="798" d="M119 586l26 194l357 217l-23 -159l-258 -154l213 -162l-22 -166zM518 586l27 194l356 217l-22 -159l-258 -154l213 -162l-23 -166z" />
<glyph unicode="&#xac;" horiz-adv-x="874" d="M145 766l25 180h762l-131 -946h-176l106 766h-586z" />
<glyph unicode="&#xad;" horiz-adv-x="372" d="M133 776l21 146h327l-20 -146h-328z" />
<glyph unicode="&#xaf;" horiz-adv-x="624" d="M272 1421l21 148h479l-20 -148h-480z" />
<glyph unicode="&#xb0;" horiz-adv-x="626" d="M260 1415q16 122 91.5 198.5t197.5 76.5q120 0 175.5 -76.5t39.5 -198.5q-18 -122 -94 -195t-197 -73q-123 0 -177 73t-36 195zM362 1415q-12 -84 18.5 -124t104.5 -40q75 0 115.5 40t52.5 124q11 86 -18 127t-103 41q-149 0 -170 -168z" />
<glyph unicode="&#xb1;" horiz-adv-x="954" d="M106 236l19 141h811l-18 -141h-812zM184 788l19 142h334l47 334h141l-47 -334h336l-19 -142h-336l-47 -335h-141l47 335h-334z" />
<glyph unicode="&#xb2;" horiz-adv-x="380" d="M174 864l23 154q11 78 32.5 125.5t83.5 124.5q52 68 76.5 113.5t32.5 101.5l12 90q3 31 -20 31q-26 0 -29 -31l-23 -150h-110l22 148q10 76 48 110.5t108 34.5q68 0 97 -35.5t20 -109.5l-15 -103q-18 -116 -118 -237q-61 -76 -81 -117.5t-26 -95.5l-6 -43h162l-17 -111 h-272z" />
<glyph unicode="&#xb3;" horiz-adv-x="380" d="M190 997l25 166h113l-25 -166q-3 -30 21 -30q27 0 30 30l31 211q3 33 -23 33h-43l15 105h49q22 0 25 32l28 195q3 31 -22 31q-26 0 -29 -31l-23 -152h-108l22 150q10 76 47.5 110.5t106.5 34.5t96 -35t15 -112l-27 -191q-6 -61 -61 -86q51 -17 39 -88l-29 -207 q-9 -67 -49 -105t-107 -38q-66 0 -96 38.5t-21 104.5z" />
<glyph unicode="&#xb4;" horiz-adv-x="591" d="M262 1343l270 330h220l-326 -330h-164z" />
<glyph unicode="&#xb6;" horiz-adv-x="884" d="M80 -285l18 131q27 -6 41 -6q49 0 72.5 23t32.5 80l180 1284h-16q-106 0 -147.5 59.5t-27.5 163.5q15 106 75 171t169 65h608l-24 -183h-123l-250 -1777h-158l250 1777h-155l-222 -1562q-14 -105 -76 -172.5t-159 -67.5q-45 0 -88 14zM356 1409q-5 -39 8 -64.5t42 -25.5 h30l27 184h-23q-71 0 -84 -94z" />
<glyph unicode="&#xb7;" horiz-adv-x="296" d="M162 717l35 256h176l-35 -256h-176z" />
<glyph unicode="&#xb8;" horiz-adv-x="288" d="M47 -188l21 147h141l-27 -180q-10 -84 -100 -84h-35l6 57h29q24 0 27 25l6 35h-68z" />
<glyph unicode="&#xb9;" horiz-adv-x="270" d="M211 864l94 672h-47l16 109h21q35 0 41 41l4 20h100l-118 -842h-111z" />
<glyph unicode="&#xba;" horiz-adv-x="452" d="M197 743l61 441q19 139 152 139t114 -139l-61 -441q-22 -139 -154 -139q-134 0 -112 139zM305 748q-3 -14 3.5 -22.5t17.5 -8.5q22 0 28 31l60 432q6 28 -21 28q-22 0 -28 -28z" />
<glyph unicode="&#xbb;" horiz-adv-x="798" d="M86 356l23 166l258 162l-213 154l22 159l295 -217l-27 -194zM485 356l23 166l258 162l-213 154l22 159l295 -217l-26 -194z" />
<glyph unicode="&#xbc;" horiz-adv-x="991" d="M57 0l987 1686h125l-985 -1686h-127zM303 864l94 672h-47l17 109h20q35 0 41 41l4 20h100l-118 -842h-111zM621 141l14 97l254 583h102l-80 -573h41l-16 -107h-41l-23 -161h-102l23 161h-172zM735 248h74q4 30 45 291q-21 -66 -119 -291z" />
<glyph unicode="&#xbd;" horiz-adv-x="991" d="M57 0l987 1686h125l-985 -1686h-127zM303 864l94 672h-47l17 109h20q35 0 41 41l4 20h100l-118 -842h-111zM637 -20l22 153q11 78 33 125.5t84 124.5q52 68 76.5 113.5t32.5 101.5l12 90q3 31 -20 31q-26 0 -29 -31l-23 -149h-110l22 147q10 76 48 110.5t108 34.5 q68 0 97 -35.5t20 -109.5l-15 -102q-18 -118 -118 -238q-61 -76 -81 -117.5t-26 -95.5l-6 -43h162l-17 -110h-272z" />
<glyph unicode="&#xbe;" horiz-adv-x="991" d="M57 0l987 1686h125l-985 -1686h-127zM233 997l25 166h113l-25 -166q-3 -30 21 -30q27 0 30 30l31 211q3 33 -22 33h-44l15 105h49q22 0 25 32l28 195q3 31 -22 31q-26 0 -29 -31l-22 -152h-109l22 150q10 76 47.5 110.5t106.5 34.5t96 -35t15 -112l-27 -191 q-6 -61 -61 -86q51 -17 39 -88l-29 -207q-9 -67 -49 -105t-107 -38q-66 0 -96 38.5t-21 104.5zM580 141l14 97l254 583h102l-80 -573h41l-16 -107h-41l-23 -161h-102l23 161h-172zM694 248h74q4 30 45 291q-21 -66 -119 -291z" />
<glyph unicode="&#xbf;" horiz-adv-x="614" d="M76 195q0 36 6 79l24 185q17 120 52.5 198t99.5 142q80 80 100.5 122.5t34.5 149.5l33 232h176l-31 -228q-17 -122 -48.5 -193.5t-98.5 -138.5q-71 -71 -91.5 -115.5t-39.5 -168.5l-27 -189q-12 -98 66 -98q80 0 92 96l43 299h180l-41 -295q-22 -150 -94 -220t-207 -70 q-117 0 -173 52t-56 161zM444 1430l35 256h176l-34 -256h-177z" />
<glyph unicode="&#xc0;" horiz-adv-x="690" d="M20 0l455 1686h219l-28 -1686h-191l4 260h-207q-36 -127 -67 -260h-185zM311 2091h217l183 -330h-164zM315 434h168q19 584 27 766q-102 -430 -195 -766z" />
<glyph unicode="&#xc1;" horiz-adv-x="690" d="M20 0l455 1686h219l-28 -1686h-191l4 260h-207q-36 -127 -67 -260h-185zM315 434h168q19 584 27 766q-102 -430 -195 -766zM471 1761l270 330h220l-326 -330h-164z" />
<glyph unicode="&#xc2;" horiz-adv-x="690" d="M20 0l455 1686h219l-28 -1686h-191l4 260h-207q-36 -127 -67 -260h-185zM287 1761l254 330h200l154 -330h-166l-106 238l-179 -238h-157zM315 434h168q19 584 27 766q-102 -430 -195 -766z" />
<glyph unicode="&#xc3;" horiz-adv-x="690" d="M20 0l455 1686h219l-28 -1686h-191l4 260h-207q-36 -127 -67 -260h-185zM315 434h168q19 584 27 766q-102 -430 -195 -766zM348 1821l21 145q53 53 133 53q51 0 126.5 -31.5t121.5 -31.5q75 0 122 57h2l-20 -147q-54 -51 -135 -51q-50 0 -126 32.5t-120 32.5 q-70 0 -123 -59h-2z" />
<glyph unicode="&#xc4;" horiz-adv-x="690" d="M20 0l455 1686h219l-28 -1686h-191l4 260h-207q-36 -127 -67 -260h-185zM315 434h168q19 584 27 766q-102 -430 -195 -766zM350 1786l37 256h170l-37 -256h-170zM662 1786l36 256h172l-36 -256h-172z" />
<glyph unicode="&#xc5;" horiz-adv-x="690" d="M20 0l455 1686h219l-28 -1686h-191l4 260h-207q-36 -127 -67 -260h-185zM315 434h168q19 584 27 766q-102 -430 -195 -766zM412 1927q11 74 68 119t153 45q98 0 144.5 -45.5t35.5 -118.5q-9 -72 -68 -116t-157 -44q-96 0 -140.5 44t-35.5 116zM496 1927q-6 -44 19 -65 t83 -21q113 0 125 86q6 45 -17.5 67.5t-82.5 22.5q-115 0 -127 -90z" />
<glyph unicode="&#xc6;" horiz-adv-x="956" d="M23 0l454 1686h668l-27 -191h-264l-76 -541h178l-26 -190h-178l-82 -576h272l-24 -188h-465l34 262h-213l-67 -262h-184zM319 434h193l150 1061h-64z" />
<glyph unicode="&#xc7;" horiz-adv-x="634" d="M94 199q0 42 4 67l160 1147q43 291 313 291q217 0 217 -211q0 -35 -6 -76l-43 -299h-172l43 299q6 51 -8.5 73.5t-56.5 22.5q-80 0 -92 -96l-162 -1149q-15 -98 65 -98q41 0 63 24t30 74l49 350h172l-49 -348q-20 -148 -90.5 -218t-200.5 -70q-236 0 -236 217zM240 -188 l20 147h141l-26 -180q-10 -84 -101 -84h-34l6 57h28q24 0 27 25l6 35h-67z" />
<glyph unicode="&#xc8;" d="M74 0l235 1686h455l-27 -191h-266l-76 -541h178l-26 -190h-178l-82 -576h276l-24 -188h-465zM266 2091h217l183 -330h-164z" />
<glyph unicode="&#xc9;" d="M74 0l235 1686h455l-27 -191h-266l-76 -541h178l-26 -190h-178l-82 -576h276l-24 -188h-465zM414 1761l270 330h219l-325 -330h-164z" />
<glyph unicode="&#xca;" d="M74 0l235 1686h455l-27 -191h-266l-76 -541h178l-26 -190h-178l-82 -576h276l-24 -188h-465zM242 1761l254 330h200l154 -330h-166l-106 238l-179 -238h-157z" />
<glyph unicode="&#xcb;" d="M74 0l235 1686h455l-27 -191h-266l-76 -541h178l-26 -190h-178l-82 -576h276l-24 -188h-465zM305 1786l37 256h170l-37 -256h-170zM616 1786l37 256h172l-37 -256h-172z" />
<glyph unicode="&#xcc;" horiz-adv-x="344" d="M78 0l235 1686h189l-236 -1686h-188zM141 2091h217l183 -330h-164z" />
<glyph unicode="&#xcd;" horiz-adv-x="344" d="M78 0l235 1686h189l-236 -1686h-188zM299 1761l270 330h219l-325 -330h-164z" />
<glyph unicode="&#xce;" horiz-adv-x="344" d="M78 0l235 1686h189l-236 -1686h-188zM117 1761l254 330h200l154 -330h-166l-106 238l-179 -238h-157z" />
<glyph unicode="&#xcf;" horiz-adv-x="344" d="M78 0l235 1686h189l-236 -1686h-188zM180 1786l37 256h170l-37 -256h-170zM492 1786l36 256h172l-36 -256h-172z" />
<glyph unicode="&#xd0;" horiz-adv-x="667" d="M70 0l106 764h-51l27 190h51l102 732h268q115 0 174.5 -58.5t59.5 -165.5q0 -42 -4 -65l-156 -1110q-40 -287 -309 -287h-268zM285 188h77q40 0 65.5 26t31.5 73l155 1112q6 44 -10 70t-57 26h-78l-76 -541h92l-26 -190h-92z" />
<glyph unicode="&#xd1;" horiz-adv-x="727" d="M68 0l235 1686h221q23 -612 51 -1145q29 246 76 571l80 574h162l-236 -1686h-184q-85 1047 -90 1130q-37 -297 -94 -694l-60 -436h-161zM367 1821l20 145q53 53 133 53q51 0 126.5 -31.5t121.5 -31.5q76 0 123 57h2l-21 -147q-54 -51 -135 -51q-50 0 -125.5 32.5 t-119.5 32.5q-70 0 -123 -59h-2z" />
<glyph unicode="&#xd2;" horiz-adv-x="661" d="M92 199q0 31 6 69l162 1149q42 287 307 287q118 0 178 -55.5t60 -163.5q0 -31 -6 -68l-162 -1149q-42 -286 -311 -286q-116 0 -175 55.5t-59 161.5zM287 268q-15 -98 65 -98q82 0 97 98l161 1149q12 96 -69 96q-80 0 -92 -96zM299 2091h217l182 -330h-163z" />
<glyph unicode="&#xd3;" horiz-adv-x="661" d="M92 199q0 31 6 69l162 1149q42 287 307 287q118 0 178 -55.5t60 -163.5q0 -31 -6 -68l-162 -1149q-42 -286 -311 -286q-116 0 -175 55.5t-59 161.5zM287 268q-15 -98 65 -98q82 0 97 98l161 1149q12 96 -69 96q-80 0 -92 -96zM457 1761l270 330h219l-325 -330h-164z" />
<glyph unicode="&#xd4;" horiz-adv-x="661" d="M92 199q0 31 6 69l162 1149q42 287 307 287q118 0 178 -55.5t60 -163.5q0 -31 -6 -68l-162 -1149q-42 -286 -311 -286q-116 0 -175 55.5t-59 161.5zM274 1761l254 330h201l154 -330h-166l-107 238l-178 -238h-158zM287 268q-15 -98 65 -98q82 0 97 98l161 1149 q12 96 -69 96q-80 0 -92 -96z" />
<glyph unicode="&#xd5;" horiz-adv-x="661" d="M92 199q0 31 6 69l162 1149q42 287 307 287q118 0 178 -55.5t60 -163.5q0 -31 -6 -68l-162 -1149q-42 -286 -311 -286q-116 0 -175 55.5t-59 161.5zM287 268q-15 -98 65 -98q82 0 97 98l161 1149q12 96 -69 96q-80 0 -92 -96zM334 1821l20 145q53 53 133 53 q51 0 126.5 -31.5t121.5 -31.5q76 0 123 57h2l-20 -147q-54 -51 -135 -51q-50 0 -126 32.5t-120 32.5q-70 0 -123 -59h-2z" />
<glyph unicode="&#xd6;" horiz-adv-x="661" d="M92 199q0 31 6 69l162 1149q42 287 307 287q118 0 178 -55.5t60 -163.5q0 -31 -6 -68l-162 -1149q-42 -286 -311 -286q-116 0 -175 55.5t-59 161.5zM287 268q-15 -98 65 -98q82 0 97 98l161 1149q12 96 -69 96q-80 0 -92 -96zM336 1786l37 256h170l-37 -256h-170z M647 1786l37 256h172l-37 -256h-172z" />
<glyph unicode="&#xd7;" horiz-adv-x="954" d="M227 623l271 235l-203 236l113 100l202 -236l273 238l86 -100l-273 -238l205 -237l-115 -101l-202 238l-271 -236z" />
<glyph unicode="&#xd8;" horiz-adv-x="661" d="M31 -193l94 261q-31 54 -31 133q0 42 4 67l162 1149q42 287 307 287q82 0 138 -29l73 203h84l-92 -260q33 -58 33 -137q0 -41 -4 -64l-162 -1149q-42 -286 -311 -286q-82 0 -140 28l-73 -203h-82zM287 268q-15 -98 65 -98q82 0 97 98l106 760l-264 -731zM344 672l264 733 l2 12q12 96 -69 96q-80 0 -92 -96z" />
<glyph unicode="&#xd9;" horiz-adv-x="671" d="M98 199q0 31 6 69l199 1418h189l-199 -1418q-15 -98 65 -98t95 98l198 1418h189l-199 -1418q-40 -286 -309 -286q-234 0 -234 217zM305 2091h217l183 -330h-164z" />
<glyph unicode="&#xda;" horiz-adv-x="671" d="M98 199q0 31 6 69l199 1418h189l-199 -1418q-15 -98 65 -98t95 98l198 1418h189l-199 -1418q-40 -286 -309 -286q-234 0 -234 217zM461 1761l270 330h219l-325 -330h-164z" />
<glyph unicode="&#xdb;" horiz-adv-x="671" d="M98 199q0 31 6 69l199 1418h189l-199 -1418q-15 -98 65 -98t95 98l198 1418h189l-199 -1418q-40 -286 -309 -286q-234 0 -234 217zM281 1761l254 330h200l154 -330h-166l-107 238l-178 -238h-157z" />
<glyph unicode="&#xdc;" horiz-adv-x="671" d="M98 199q0 31 6 69l199 1418h189l-199 -1418q-15 -98 65 -98t95 98l198 1418h189l-199 -1418q-40 -286 -309 -286q-234 0 -234 217zM342 1786l37 256h170l-37 -256h-170zM653 1786l37 256h172l-37 -256h-172z" />
<glyph unicode="&#xdd;" horiz-adv-x="684" d="M242 0l102 737l-92 949h199q3 -118 13 -271t17 -258.5t6 -136.5q7 23 94 265t138 401h184l-366 -949l-103 -737h-192zM469 1761l270 330h219l-325 -330h-164z" />
<glyph unicode="&#xde;" horiz-adv-x="673" d="M74 0l235 1686h189l-41 -300h84q131 0 195.5 -56.5t64.5 -172.5q0 -33 -6 -74l-74 -518q-20 -147 -105.5 -225t-232.5 -78h-86l-35 -262h-188zM324 451h86q105 0 120 114l74 518q15 113 -90 113h-84z" />
<glyph unicode="&#xdf;" horiz-adv-x="675" d="M74 0l202 1452q36 252 273 252q116 0 167 -65t34 -187l-60 -420q-5 -46 -27 -79t-45 -44q56 -16 84 -68t17 -139l-66 -460q-19 -134 -81.5 -197t-184.5 -63q-46 0 -70 8l25 170q21 -6 55 -6q40 0 61 20.5t27 67.5l66 467q11 86 -64 86h-81l22 163h29q59 0 67 74l60 414 q10 84 -60 84q-72 0 -82 -84l-202 -1446h-166z" />
<glyph unicode="&#xe0;" horiz-adv-x="583" d="M68 182l26 187q7 51 22 94t32 74.5t46 60t52.5 47t64 40t67.5 33.5t75 32l41 286q9 80 -58 80q-41 0 -58 -19.5t-22 -60.5l-39 -266h-149l39 268q35 250 258 250q197 0 197 -188q0 -4 -5 -62l-131 -929q-10 -79 -4 -109h-155q-6 28 0 70q-62 -88 -154 -88 q-173 0 -145 200zM201 1673h217l182 -330h-164zM242 225q-12 -78 59 -78q51 0 74 56l59 409q-43 -14 -72.5 -33.5t-46 -38t-28 -52.5t-16 -58t-11.5 -74z" />
<glyph unicode="&#xe1;" horiz-adv-x="583" d="M68 182l26 187q7 51 22 94t32 74.5t46 60t52.5 47t64 40t67.5 33.5t75 32l41 286q9 80 -58 80q-41 0 -58 -19.5t-22 -60.5l-39 -266h-149l39 268q35 250 258 250q197 0 197 -188q0 -4 -5 -62l-131 -929q-10 -79 -4 -109h-155q-6 28 0 70q-62 -88 -154 -88 q-173 0 -145 200zM242 225q-12 -78 59 -78q51 0 74 56l59 409q-43 -14 -72.5 -33.5t-46 -38t-28 -52.5t-16 -58t-11.5 -74zM360 1343l271 330h219l-326 -330h-164z" />
<glyph unicode="&#xe2;" horiz-adv-x="583" d="M68 182l26 187q7 51 22 94t32 74.5t46 60t52.5 47t64 40t67.5 33.5t75 32l41 286q9 80 -58 80q-41 0 -58 -19.5t-22 -60.5l-39 -266h-149l39 268q35 250 258 250q197 0 197 -188q0 -4 -5 -62l-131 -929q-10 -79 -4 -109h-155q-6 28 0 70q-62 -88 -154 -88 q-173 0 -145 200zM176 1343l254 330h201l153 -330h-166l-106 238l-178 -238h-158zM242 225q-12 -78 59 -78q51 0 74 56l59 409q-43 -14 -72.5 -33.5t-46 -38t-28 -52.5t-16 -58t-11.5 -74z" />
<glyph unicode="&#xe3;" horiz-adv-x="583" d="M68 182l26 187q7 51 22 94t32 74.5t46 60t52.5 47t64 40t67.5 33.5t75 32l41 286q9 80 -58 80q-41 0 -58 -19.5t-22 -60.5l-39 -266h-149l39 268q35 250 258 250q197 0 197 -188q0 -4 -5 -62l-131 -929q-10 -79 -4 -109h-155q-6 28 0 70q-62 -88 -154 -88 q-173 0 -145 200zM240 1403l20 145q54 54 133 54q51 0 126.5 -32t121.5 -32q76 0 123 57h2l-21 -147q-54 -51 -135 -51q-50 0 -125.5 32.5t-119.5 32.5q-70 0 -123 -59h-2zM242 225q-12 -78 59 -78q51 0 74 56l59 409q-43 -14 -72.5 -33.5t-46 -38t-28 -52.5t-16 -58 t-11.5 -74z" />
<glyph unicode="&#xe4;" horiz-adv-x="583" d="M68 182l26 187q7 51 22 94t32 74.5t46 60t52.5 47t64 40t67.5 33.5t75 32l41 286q9 80 -58 80q-41 0 -58 -19.5t-22 -60.5l-39 -266h-149l39 268q35 250 258 250q197 0 197 -188q0 -4 -5 -62l-131 -929q-10 -79 -4 -109h-155q-6 28 0 70q-62 -88 -154 -88 q-173 0 -145 200zM242 225q-12 -78 59 -78q51 0 74 56l59 409q-43 -14 -72.5 -33.5t-46 -38t-28 -52.5t-16 -58t-11.5 -74zM242 1368l37 256h170l-37 -256h-170zM553 1368l37 256h172l-37 -256h-172z" />
<glyph unicode="&#xe5;" horiz-adv-x="583" d="M68 182l26 187q7 51 22 94t32 74.5t46 60t52.5 47t64 40t67.5 33.5t75 32l41 286q9 80 -58 80q-41 0 -58 -19.5t-22 -60.5l-39 -266h-149l39 268q35 250 258 250q197 0 197 -188q0 -4 -5 -62l-131 -929q-10 -79 -4 -109h-155q-6 28 0 70q-62 -88 -154 -88 q-173 0 -145 200zM242 225q-12 -78 59 -78q51 0 74 56l59 409q-43 -14 -72.5 -33.5t-46 -38t-28 -52.5t-16 -58t-11.5 -74zM301 1509q11 74 68 119t153 45q98 0 144.5 -45.5t35.5 -118.5q-9 -71 -68 -115t-157 -44q-96 0 -140.5 43.5t-35.5 115.5zM385 1509q-6 -44 19 -65 t83 -21q113 0 125 86q6 45 -17.5 67.5t-82.5 22.5q-115 0 -127 -90z" />
<glyph unicode="&#xe6;" horiz-adv-x="868" d="M68 182l26 187q7 51 22 94t32 74.5t46 60t52.5 47t64 40t67.5 33.5t75 32l41 288q10 78 -58 78q-71 0 -80 -78l-39 -268h-149l39 268q35 250 258 250q96 0 143 -47q59 47 150 47q198 0 198 -192q0 -30 -6 -68l-59 -418h-295l-53 -379q-9 -75 55 -75q70 0 82 82l39 278 h160l-39 -278q-38 -256 -267 -256q-67 0 -103.5 22.5t-57.5 71.5q-63 -94 -189 -94q-87 0 -128 49t-27 151zM246 250q-8 -53 3 -78t52 -25q51 0 74 56l59 409q-43 -14 -72.5 -33.5t-46 -38t-28 -52.5t-16 -58t-11.5 -74zM614 733h136l41 295q6 38 -10 60t-48 22 q-65 0 -78 -82z" />
<glyph unicode="&#xe7;" horiz-adv-x="581" d="M90 180q0 20 4 60l111 786q18 121 87 191.5t185 70.5q98 0 145.5 -51.5t47.5 -144.5q0 -41 -4 -64l-39 -274h-156l39 278q13 80 -57 80q-33 0 -54.5 -21.5t-27.5 -60.5l-111 -790q-12 -84 57 -84q70 0 82 84l39 278h160l-39 -282q-18 -119 -84.5 -186.5t-181.5 -67.5 q-102 0 -152.5 52t-50.5 146zM203 -188l20 147h142l-27 -180q-10 -84 -100 -84h-35l6 57h29q23 0 26 25l6 35h-67z" />
<glyph unicode="&#xe8;" d="M88 170q0 30 6 68l111 790q38 260 260 260q197 0 197 -194q0 -37 -5 -66l-59 -418h-295l-51 -372q-12 -82 53 -82q70 0 82 84l39 276h160l-39 -278q-38 -256 -266 -256q-193 0 -193 188zM197 1673h217l182 -330h-164zM322 733h135l41 295q12 82 -58 82q-66 0 -78 -82z " />
<glyph unicode="&#xe9;" d="M88 170q0 30 6 68l111 790q38 260 260 260q197 0 197 -194q0 -37 -5 -66l-59 -418h-295l-51 -372q-12 -82 53 -82q70 0 82 84l39 276h160l-39 -278q-38 -256 -266 -256q-193 0 -193 188zM322 733h135l41 295q12 82 -58 82q-66 0 -78 -82zM356 1343l271 330h219l-326 -330 h-164z" />
<glyph unicode="&#xea;" d="M88 170q0 30 6 68l111 790q38 260 260 260q197 0 197 -194q0 -37 -5 -66l-59 -418h-295l-51 -372q-12 -82 53 -82q70 0 82 84l39 276h160l-39 -278q-38 -256 -266 -256q-193 0 -193 188zM172 1343l254 330h201l153 -330h-166l-106 238l-178 -238h-158zM322 733h135 l41 295q12 82 -58 82q-66 0 -78 -82z" />
<glyph unicode="&#xeb;" d="M88 170q0 30 6 68l111 790q38 260 260 260q197 0 197 -194q0 -37 -5 -66l-59 -418h-295l-51 -372q-12 -82 53 -82q70 0 82 84l39 276h160l-39 -278q-38 -256 -266 -256q-193 0 -193 188zM238 1368l36 256h170l-36 -256h-170zM322 733h135l41 295q12 82 -58 82 q-66 0 -78 -82zM549 1368l37 256h172l-37 -256h-172z" />
<glyph unicode="&#xec;" horiz-adv-x="348" d="M96 1673h217l183 -330h-164zM102 0l177 1268h170l-177 -1268h-170z" />
<glyph unicode="&#xed;" horiz-adv-x="380" d="M78 0l176 1268h170l-176 -1268h-170zM231 1343l271 330h219l-326 -330h-164z" />
<glyph unicode="&#xee;" horiz-adv-x="493" d="M131 1343l254 330h201l153 -330h-166l-106 238l-178 -238h-158zM162 0l176 1268h170l-176 -1268h-170z" />
<glyph unicode="&#xef;" horiz-adv-x="389" d="M109 0l176 1268h170l-176 -1268h-170zM141 1368l37 256h170l-37 -256h-170zM453 1368l36 256h173l-37 -256h-172z" />
<glyph unicode="&#xf0;" horiz-adv-x="661" d="M94 209q0 19 4 65l76 541q38 250 264 250q90 0 127 -66l29 197q8 63 8 125q0 47 -4 65l-223 -233l-58 55l244 256q-40 43 -143 49l26 191q178 0 258 -92l103 106l57 -55l-117 -121q33 -76 33 -192q0 -69 -14 -179l-127 -897q-21 -141 -99.5 -216.5t-211.5 -75.5 q-116 0 -174 58.5t-58 168.5zM289 281q-16 -111 63 -111q40 0 64 25.5t30 72.5l76 535q-2 24 -6.5 38.5t-19 26t-39.5 11.5q-87 0 -99 -97z" />
<glyph unicode="&#xf1;" horiz-adv-x="620" d="M74 0l176 1268h143q3 -31 -4 -82q73 102 184 102q136 0 136 -160q0 -26 -7 -73l-147 -1055h-172l145 1044q6 40 -6.5 58t-44.5 18q-56 0 -84 -49l-149 -1071h-170zM258 1403l21 145q54 54 133 54q51 0 126 -32t121 -32q76 0 123 57h2l-20 -147q-54 -51 -135 -51 q-50 0 -126 32.5t-120 32.5q-70 0 -123 -59h-2z" />
<glyph unicode="&#xf2;" horiz-adv-x="595" d="M90 170q0 40 4 63l111 801q39 254 274 254q101 0 153 -49t52 -143q0 -42 -4 -62l-111 -801q-19 -122 -88.5 -186.5t-185.5 -64.5q-205 0 -205 188zM207 1673h217l182 -330h-164zM260 238q-6 -41 7.5 -61.5t51.5 -20.5t57 20.5t25 63.5l111 788q6 42 -6.5 63t-50.5 21 q-71 0 -84 -84z" />
<glyph unicode="&#xf3;" horiz-adv-x="595" d="M90 170q0 40 4 63l111 801q39 254 274 254q101 0 153 -49t52 -143q0 -42 -4 -62l-111 -801q-19 -122 -88.5 -186.5t-185.5 -64.5q-205 0 -205 188zM260 238q-6 -41 7.5 -61.5t51.5 -20.5t57 20.5t25 63.5l111 788q6 42 -6.5 63t-50.5 21q-71 0 -84 -84zM367 1343l270 330 h219l-326 -330h-163z" />
<glyph unicode="&#xf4;" horiz-adv-x="595" d="M90 170q0 40 4 63l111 801q39 254 274 254q101 0 153 -49t52 -143q0 -42 -4 -62l-111 -801q-19 -122 -88.5 -186.5t-185.5 -64.5q-205 0 -205 188zM182 1343l254 330h201l154 -330h-166l-107 238l-178 -238h-158zM260 238q-6 -41 7.5 -61.5t51.5 -20.5t57 20.5t25 63.5 l111 788q6 42 -6.5 63t-50.5 21q-71 0 -84 -84z" />
<glyph unicode="&#xf5;" horiz-adv-x="595" d="M90 170q0 40 4 63l111 801q39 254 274 254q101 0 153 -49t52 -143q0 -42 -4 -62l-111 -801q-19 -122 -88.5 -186.5t-185.5 -64.5q-205 0 -205 188zM246 1403l20 145q54 54 133 54q51 0 126.5 -32t121.5 -32q76 0 123 57h2l-20 -147q-54 -51 -136 -51q-50 0 -125.5 32.5 t-119.5 32.5q-70 0 -123 -59h-2zM260 238q-6 -41 7.5 -61.5t51.5 -20.5t57 20.5t25 63.5l111 788q6 42 -6.5 63t-50.5 21q-71 0 -84 -84z" />
<glyph unicode="&#xf6;" horiz-adv-x="595" d="M90 170q0 40 4 63l111 801q39 254 274 254q101 0 153 -49t52 -143q0 -42 -4 -62l-111 -801q-19 -122 -88.5 -186.5t-185.5 -64.5q-205 0 -205 188zM248 1368l37 256h170l-37 -256h-170zM260 238q-6 -41 7.5 -61.5t51.5 -20.5t57 20.5t25 63.5l111 788q6 42 -6.5 63 t-50.5 21q-71 0 -84 -84zM559 1368l37 256h172l-37 -256h-172z" />
<glyph unicode="&#xf7;" horiz-adv-x="954" d="M184 788l19 142h811l-19 -142h-811zM440 369l35 256h176l-35 -256h-176zM543 1094l35 256h176l-35 -256h-176z" />
<glyph unicode="&#xf8;" horiz-adv-x="595" d="M31 -193l92 242q-33 44 -33 123q0 38 4 61l111 801q39 254 274 254q61 0 107 -18l71 190h82l-92 -239q51 -67 33 -187l-111 -801q-19 -122 -88.5 -186.5t-185.5 -64.5q-57 0 -109 18l-73 -193h-82zM260 193q6 -37 59 -37q38 0 57 20.5t25 63.5l74 522zM299 514l211 561 q-6 37 -55 37q-71 0 -84 -84z" />
<glyph unicode="&#xf9;" horiz-adv-x="616" d="M92 145q0 40 4 60l148 1063h170l-146 -1037q-5 -40 6.5 -57.5t42.5 -17.5q52 0 84 49l148 1063h172l-176 -1268h-146q-3 32 4 80q-71 -92 -178 -92q-64 0 -98.5 41t-34.5 116zM217 1673h217l182 -330h-163z" />
<glyph unicode="&#xfa;" horiz-adv-x="616" d="M92 145q0 40 4 60l148 1063h170l-146 -1037q-5 -40 6.5 -57.5t42.5 -17.5q52 0 84 49l148 1063h172l-176 -1268h-146q-3 32 4 80q-71 -92 -178 -92q-64 0 -98.5 41t-34.5 116zM377 1343l270 330h219l-325 -330h-164z" />
<glyph unicode="&#xfb;" horiz-adv-x="616" d="M92 145q0 40 4 60l148 1063h170l-146 -1037q-5 -40 6.5 -57.5t42.5 -17.5q52 0 84 49l148 1063h172l-176 -1268h-146q-3 32 4 80q-71 -92 -178 -92q-64 0 -98.5 41t-34.5 116zM193 1343l253 330h201l154 -330h-166l-107 238l-178 -238h-157z" />
<glyph unicode="&#xfc;" horiz-adv-x="616" d="M92 145q0 40 4 60l148 1063h170l-146 -1037q-5 -40 6.5 -57.5t42.5 -17.5q52 0 84 49l148 1063h172l-176 -1268h-146q-3 32 4 80q-71 -92 -178 -92q-64 0 -98.5 41t-34.5 116zM258 1368l37 256h170l-37 -256h-170zM569 1368l37 256h172l-37 -256h-172z" />
<glyph unicode="&#xfd;" horiz-adv-x="569" d="M-2 -285l22 170q24 -8 68 -8q40 0 63 33t42 102l8 27l-6 1229h178q-11 -409 -37 -889q100 417 223 889h164l-342 -1221q-19 -62 -33 -101t-34 -82.5t-41.5 -69t-50.5 -48t-66.5 -32t-85.5 -9.5q-27 0 -72 10zM352 1343l271 330h219l-326 -330h-164z" />
<glyph unicode="&#xfe;" horiz-adv-x="622" d="M33 -285l276 1971h170l-63 -457q56 59 141 59q79 0 118.5 -39.5t39.5 -124.5q0 -28 -6 -69l-119 -842q-17 -122 -69.5 -176.5t-147.5 -54.5q-83 0 -125 57l-45 -324h-170zM272 213q14 -53 70 -53q71 0 82 76l111 796q6 41 -8 59.5t-50 18.5q-59 0 -86 -55z" />
<glyph unicode="&#xff;" horiz-adv-x="569" d="M-2 -285l22 170q24 -8 68 -8q40 0 63 33t42 102l8 27l-6 1229h178q-11 -409 -37 -889q100 417 223 889h164l-342 -1221q-19 -62 -33 -101t-34 -82.5t-41.5 -69t-50.5 -48t-66.5 -32t-85.5 -9.5q-27 0 -72 10zM233 1368l37 256h170l-37 -256h-170zM545 1368l37 256h172 l-37 -256h-172z" />
<glyph unicode="&#x152;" horiz-adv-x="892" d="M92 199q0 31 6 69l162 1149q42 287 307 287q67 0 111 -18h403l-26 -191h-267l-75 -541h178l-27 -190h-178l-82 -576h277l-25 -188h-414q-50 -18 -116 -18q-116 0 -175 55.5t-59 161.5zM287 268q-15 -98 65 -98q28 0 64 8l186 1327q-21 8 -61 8q-80 0 -92 -96z" />
<glyph unicode="&#x153;" horiz-adv-x="890" d="M90 170q0 40 4 63l111 801q39 254 274 254q98 0 146 -51q66 51 155 51q199 0 199 -194q0 -43 -4 -66l-60 -418h-294l-52 -372q-12 -82 52 -82q69 0 81 84l39 276h162l-39 -278q-38 -256 -268 -256q-93 0 -143 47q-59 -47 -158 -47q-205 0 -205 188zM260 238 q-6 -41 7.5 -61.5t51.5 -20.5t57 20.5t25 63.5l111 788q6 42 -6.5 63t-50.5 21q-71 0 -84 -84zM639 733h133l41 295q12 82 -57 82q-64 0 -76 -82z" />
<glyph unicode="&#x178;" horiz-adv-x="684" d="M242 0l102 737l-92 949h199q3 -118 13 -271t17 -258.5t6 -136.5q7 23 94 265t138 401h184l-366 -949l-103 -737h-192zM348 1786l37 256h170l-37 -256h-170zM659 1786l37 256h172l-37 -256h-172z" />
<glyph unicode="&#x2c6;" horiz-adv-x="792" d="M281 1343l254 330h200l154 -330h-166l-107 238l-178 -238h-157z" />
<glyph unicode="&#x2dc;" horiz-adv-x="645" d="M268 1403l21 145q54 54 133 54q51 0 126.5 -32t121.5 -32q76 0 123 57h2l-21 -147q-54 -51 -135 -51q-50 0 -126 32.5t-120 32.5q-70 0 -123 -59h-2z" />
<glyph unicode="&#x2000;" horiz-adv-x="1045" />
<glyph unicode="&#x2001;" horiz-adv-x="2091" />
<glyph unicode="&#x2002;" horiz-adv-x="1045" />
<glyph unicode="&#x2003;" horiz-adv-x="2091" />
<glyph unicode="&#x2004;" horiz-adv-x="697" />
<glyph unicode="&#x2005;" horiz-adv-x="522" />
<glyph unicode="&#x2006;" horiz-adv-x="348" />
<glyph unicode="&#x2007;" horiz-adv-x="348" />
<glyph unicode="&#x2008;" horiz-adv-x="261" />
<glyph unicode="&#x2009;" horiz-adv-x="418" />
<glyph unicode="&#x200a;" horiz-adv-x="116" />
<glyph unicode="&#x2010;" horiz-adv-x="372" d="M133 776l21 146h327l-20 -146h-328z" />
<glyph unicode="&#x2011;" horiz-adv-x="372" d="M133 776l21 146h327l-20 -146h-328z" />
<glyph unicode="&#x2012;" horiz-adv-x="372" d="M133 776l21 146h327l-20 -146h-328z" />
<glyph unicode="&#x2013;" horiz-adv-x="573" d="M133 776l21 146h526l-21 -146h-526z" />
<glyph unicode="&#x2014;" horiz-adv-x="905" d="M133 776l21 146h860l-21 -146h-860z" />
<glyph unicode="&#x2018;" horiz-adv-x="299" d="M246 1321l35 250q8 59 46 95t105 36h21l-11 -78h-20q-21 0 -30.5 -9t-12.5 -32l-6 -51h80l-31 -211h-176z" />
<glyph unicode="&#x2019;" horiz-adv-x="299" d="M266 1305l10 77h19q22 0 32 10t13 33l8 50h-80l29 211h176l-35 -248q-8 -60 -45.5 -96.5t-105.5 -36.5h-21z" />
<glyph unicode="&#x201a;" horiz-adv-x="313" d="M74 -125l10 78h18q22 0 32 10t13 33l9 49h-80l28 211h177l-35 -248q-8 -59 -46.5 -96t-105.5 -37h-20z" />
<glyph unicode="&#x201c;" horiz-adv-x="598" d="M246 1321l35 250q8 59 46 95t105 36h21l-11 -78h-20q-21 0 -30.5 -9t-12.5 -32l-6 -51h80l-31 -211h-176zM545 1321l35 250q8 59 46 95t105 36h21l-11 -78h-20q-21 0 -30.5 -9t-12.5 -32l-6 -51h80l-31 -211h-176z" />
<glyph unicode="&#x201d;" horiz-adv-x="598" d="M266 1305l10 77h19q22 0 32 10t13 33l8 50h-80l29 211h176l-35 -248q-8 -60 -45.5 -96.5t-105.5 -36.5h-21zM565 1305l10 77h19q22 0 32 10t13 33l8 50h-80l29 211h176l-35 -248q-8 -60 -45.5 -96.5t-105.5 -36.5h-21z" />
<glyph unicode="&#x201e;" horiz-adv-x="626" d="M74 -125l10 78h18q22 0 32 10t13 33l9 49h-80l28 211h177l-35 -248q-8 -59 -46.5 -96t-105.5 -37h-20zM387 -125l10 78h19q22 0 32 10t13 33l8 49h-80l29 211h176l-35 -248q-8 -59 -46 -96t-105 -37h-21z" />
<glyph unicode="&#x2022;" horiz-adv-x="430" d="M197 963q9 75 58.5 125.5t121.5 50.5q69 0 103.5 -50t25.5 -126q-11 -77 -61 -128t-119 -51q-71 0 -105.5 50.5t-23.5 128.5z" />
<glyph unicode="&#x2026;" horiz-adv-x="1484" d="M61 0l35 256h176l-34 -256h-177zM655 0l35 256h176l-35 -256h-176zM1249 0l35 256h176l-35 -256h-176z" />
<glyph unicode="&#x202f;" horiz-adv-x="418" />
<glyph unicode="&#x2039;" horiz-adv-x="399" d="M119 586l26 194l357 217l-23 -159l-258 -154l213 -162l-22 -166z" />
<glyph unicode="&#x203a;" horiz-adv-x="399" d="M86 356l23 166l258 162l-213 154l22 159l295 -217l-27 -194z" />
<glyph unicode="&#x205f;" horiz-adv-x="522" />
<glyph unicode="&#x20ac;" horiz-adv-x="706" d="M98 594l43 143h74l35 240h-96l43 145h73l35 254q24 171 116 249.5t292 78.5q115 0 213 -10l-58 -191q-93 13 -174 13q-108 0 -147.5 -31.5t-50.5 -108.5l-35 -254h295l-45 -145h-271l-34 -240h235l-45 -143h-211l-45 -330q-6 -41 14 -69.5t60 -28.5q54 0 76.5 33 t33.5 110l17 117h186l-22 -158q-42 -286 -318 -286q-244 0 -244 217q0 25 7 69l45 326h-97z" />
<glyph unicode="&#x2122;" horiz-adv-x="999" d="M274 1595l13 91h325l-12 -91h-104l-97 -688h-116l96 688h-105zM575 907l109 779h154v-236q0 -176 4 -340q8 29 57.5 200.5t106.5 375.5h155l-108 -779h-107l31 226q18 130 49 303l-162 -529h-100l-14 529q-33 -271 -37 -303l-31 -226h-107z" />
<glyph unicode="&#xe000;" horiz-adv-x="1269" d="M0 0v1270h1270v-1270h-1270z" />
<glyph unicode="&#xfb01;" horiz-adv-x="714" d="M80 0l156 1118h-62l21 150h61l27 176q34 252 233 252q51 0 92 -13l-20 -145q-10 4 -41 4q-82 0 -96 -102l-25 -172h119l-21 -150h-118l-156 -1118h-170zM469 0l176 1268h170l-176 -1268h-170zM670 1430l35 256h169l-34 -256h-170z" />
<glyph unicode="&#xfb02;" horiz-adv-x="708" d="M80 0l156 1118h-62l21 150h61l27 176q34 252 233 252q51 0 92 -13l-20 -145q-10 4 -41 4q-82 0 -96 -102l-25 -172h119l-21 -150h-118l-156 -1118h-170zM465 0l235 1686h170l-235 -1686h-170z" />
</font>
</defs>
</svg>
